G04 ================== begin FILE IDENTIFICATION RECORD ==================*
G04 Layout Name:  SCA830D07_V10A.brd*
G04 Film Name:    ADB*
G04 File Format:  Gerber RS274X*
G04 File Origin:  Cadence Allegro 16.6-2015-S095*
G04 Origin Date:  Tue Oct 31 11:40:28 2017*
G04 *
G04 Layer:  REF DES/SILKSCREEN_BOTTOM*
G04 Layer:  PIN/BOTTOM*
G04 Layer:  PACKAGE GEOMETRY/SILKSCREEN_BOTTOM*
G04 Layer:  BOARD GEOMETRY/SILKSCREEN_BOTTOM*
G04 Layer:  BOARD GEOMETRY/OUTLINE*
G04 *
G04 Offset:    (0.0000 0.0000)*
G04 Mirror:    No*
G04 Mode:      Positive*
G04 Rotation:  0*
G04 FullContactRelief:  No*
G04 UndefLineWidth:     0.1524*
G04 ================== end FILE IDENTIFICATION RECORD ====================*
%FSLAX55Y55*MOMM*%
%IR0*IPPOS*OFA0.00000B0.00000*MIA0B0*SFA1.00000B1.00000*%
%ADD10R,.9X5.*%
%ADD11C,.127*%
%ADD12C,.1524*%
G75*
%LPD*%
G75*
G54D10*
X1260000Y320000D03*
X1120000D03*
X980000D03*
X1680000D03*
X1540000D03*
X1400000D03*
G54D11*
G01X575500Y1158900D02*
X385000D01*
G01X575500Y1146200D02*
X385000D01*
G01X575500Y1133500D02*
X385000D01*
G01X575500Y1120800D02*
X385000D01*
G01X575500Y1108100D02*
X385000D01*
G01X981900Y1095400D02*
X753300D01*
G01X588200D02*
X372300D01*
G01X994600Y1082700D02*
X740600D01*
G01X600900D02*
X359600D01*
G01X766000Y1070000D02*
X753300D01*
G01X588200D02*
X562800D01*
G01X537400D02*
X512000D01*
G01X486600D02*
X423100D01*
G01X385000D02*
X372300D01*
G01X575500Y1692300D02*
X385000D01*
G01X575500Y1679600D02*
X385000D01*
G01X575500Y1666900D02*
X385000D01*
G01X575500Y1654200D02*
X385000D01*
G01X575500Y1641500D02*
X385000D01*
G01X575500Y1628800D02*
X397700D01*
G01X296100D02*
X270700D01*
G01X575500Y1616100D02*
X448500D01*
G01X575500Y1603400D02*
X486600D01*
G01X385000D02*
X346900D01*
G01X575500Y1590700D02*
X524700D01*
G01X575500Y1578000D02*
X550100D01*
G01X461200D02*
X448500D01*
G01X486600Y1565300D02*
X473900D01*
G01X524700Y1552600D02*
X512000D01*
G01X423100D02*
X385000D01*
G01X461200Y1539900D02*
X385000D01*
G01X766000Y1527200D02*
X740600D01*
G01X588200D02*
X575500D01*
G01X486600D02*
X385000D01*
G01X727900Y1514500D02*
X715200D01*
G01X626300D02*
X600900D01*
G01X524700D02*
X385000D01*
G01X715200Y1501800D02*
X702500D01*
G01X651700D02*
X626300D01*
G01X562800D02*
X385000D01*
G01X677100Y1489100D02*
X651700D01*
G01X575500D02*
X385000D01*
G01X702500Y1476400D02*
X677100D01*
G01X575500D02*
X385000D01*
G01X702500Y1463700D02*
X689800D01*
G01X575500D02*
X385000D01*
G01X740600Y1451000D02*
X715200D01*
G01X575500D02*
X385000D01*
G01X753300Y1438300D02*
X740600D01*
G01X575500D02*
X385000D01*
G01X778700Y1425600D02*
X766000D01*
G01X715200D02*
X702500D01*
G01X575500D02*
X385000D01*
G01X715200Y1412900D02*
X702500D01*
G01X575500D02*
X385000D01*
G01X575500Y1400200D02*
X385000D01*
G01X727900Y1387500D02*
X715200D01*
G01X575500D02*
X385000D01*
G01X575500Y1374800D02*
X385000D01*
G01X740600Y1362100D02*
X727900D01*
G01X575500D02*
X385000D01*
G01X753300Y1349400D02*
X740600D01*
G01X575500D02*
X385000D01*
G01X575500Y1336700D02*
X385000D01*
G01X766000Y1324000D02*
X753300D01*
G01X575500D02*
X385000D01*
G01X778700Y1311300D02*
X766000D01*
G01X575500D02*
X385000D01*
G01X575500Y1298600D02*
X385000D01*
G01X575500Y1285900D02*
X385000D01*
G01X575500Y1273200D02*
X385000D01*
G01X575500Y1260500D02*
X385000D01*
G01X575500Y1247800D02*
X385000D01*
G01X575500Y1235100D02*
X385000D01*
G01X575500Y1222400D02*
X385000D01*
G01X575500Y1209700D02*
X385000D01*
G01X575500Y1197000D02*
X385000D01*
G01X575500Y1184300D02*
X385000D01*
G01X575500Y1171600D02*
X385000D01*
G01X981900Y1755800D02*
X753300D01*
G01X600900D02*
X359600D01*
G01X994600Y1743100D02*
X753300D01*
G01X600900D02*
X359600D01*
G01X575500Y1730400D02*
X385000D01*
G01X575500Y1717700D02*
X385000D01*
G01X575500Y1705000D02*
X385000D01*
G01X969200Y1158900D02*
X778700D01*
G01X969200Y1146200D02*
X778700D01*
G01X969200Y1133500D02*
X778700D01*
G01X969200Y1120800D02*
X778700D01*
G01X969200Y1108100D02*
X778700D01*
G01X981900Y1070000D02*
X931100D01*
G01X905700D02*
X893000D01*
G01X867600D02*
X816800D01*
G01X956500Y1692300D02*
X778700D01*
G01X969200Y1679600D02*
X778700D01*
G01X969200Y1666900D02*
X778700D01*
G01X969200Y1654200D02*
X778700D01*
G01X969200Y1641500D02*
X778700D01*
G01X969200Y1628800D02*
X778700D01*
G01X969200Y1616100D02*
X778700D01*
G01X969200Y1603400D02*
X778700D01*
G01X969200Y1590700D02*
X778700D01*
G01X969200Y1578000D02*
X778700D01*
G01X969200Y1565300D02*
X778700D01*
G01X969200Y1552600D02*
X829500D01*
G01X969200Y1539900D02*
X867600D01*
G01X956500Y1527200D02*
X893000D01*
G01X969200Y1514500D02*
X918400D01*
G01X854900D02*
X842200D01*
G01X969200Y1501800D02*
X943800D01*
G01X880300D02*
X867600D01*
G01X969200Y1489100D02*
X956500D01*
G01X816800D02*
X778700D01*
G01X918400Y1476400D02*
X905700D01*
G01X854900D02*
X778700D01*
G01X931100Y1463700D02*
X918400D01*
G01X867600D02*
X778700D01*
G01X956500Y1451000D02*
X943800D01*
G01X893000D02*
X791400D01*
G01X969200Y1438300D02*
X956500D01*
G01X905700D02*
X804100D01*
G01X981900Y1425600D02*
X969200D01*
G01X918400D02*
X816800D01*
G01X994600Y1412900D02*
X981900D01*
G01X943800D02*
X829500D01*
G01X791400D02*
X778700D01*
G01X1020000Y1400200D02*
X994600D01*
G01X956500D02*
X842200D01*
G01X804100D02*
X791400D01*
G01X969200Y1387500D02*
X854900D01*
G01X816800D02*
X804100D01*
G01X969200Y1374800D02*
X867600D01*
G01X829500D02*
X816800D01*
G01X956500Y1362100D02*
X880300D01*
G01X842200D02*
X829500D01*
G01X791400D02*
X778700D01*
G01X969200Y1349400D02*
X893000D01*
G01X854900D02*
X842200D01*
G01X804100D02*
X778700D01*
G01X969200Y1336700D02*
X905700D01*
G01X867600D02*
X854900D01*
G01X816800D02*
X791400D01*
G01X969200Y1324000D02*
X905700D01*
G01X880300D02*
X867600D01*
G01X829500D02*
X804100D01*
G01X969200Y1311300D02*
X918400D01*
G01X842200D02*
X816800D01*
G01X969200Y1298600D02*
X931100D01*
G01X893000D02*
X880300D01*
G01X854900D02*
X829500D01*
G01X791400D02*
X778700D01*
G01X969200Y1285900D02*
X931100D01*
G01X854900D02*
X842200D01*
G01X804100D02*
X791400D01*
G01X969200Y1273200D02*
X943800D01*
G01X816800D02*
X804100D01*
G01X969200Y1260500D02*
X943800D01*
G01X918400D02*
X905700D01*
G01X829500D02*
X816800D01*
G01X969200Y1247800D02*
X956500D01*
G01X791400D02*
X778700D01*
G01X969200Y1235100D02*
X956500D01*
G01X867600D02*
X854900D01*
G01X804100D02*
X778700D01*
G01X969200Y1222400D02*
X956500D01*
G01X880300D02*
X867600D01*
G01X816800D02*
X778700D01*
G01X969200Y1209700D02*
X956500D01*
G01X918400D02*
X905700D01*
G01X829500D02*
X778700D01*
G01X969200Y1197000D02*
X956500D01*
G01X854900D02*
X778700D01*
G01X969200Y1184300D02*
X943800D01*
G01X880300D02*
X778700D01*
G01X969200Y1171600D02*
X778700D01*
G01X969200Y1730400D02*
X778700D01*
G01X969200Y1717700D02*
X778700D01*
G01X969200Y1705000D02*
X778700D01*
G54D12*
G01X100000Y0D02*
X1700000D01*
G03X1800000Y100000I0J100000D01*
G01Y1700000D01*
G03X1700000Y1800000I-100000J0D01*
G01X100000D01*
G03X0Y1700000I0J-100000D01*
G01Y100000D01*
G03X100000Y0I100000J0D01*
G01X460000Y300000D02*
G03I-160000J0D01*
G01X1558000Y894660D02*
X1547330Y885500D01*
X1535330Y880000D01*
X1524670D01*
X1514000Y885500D01*
X1506000Y894660D01*
X1502000Y907500D01*
X1504670Y920330D01*
X1511330Y931330D01*
X1523330Y938670D01*
X1539330Y942330D01*
X1548670Y949670D01*
X1552670Y962500D01*
X1550000Y975330D01*
X1543330Y984500D01*
X1534000Y990000D01*
X1524670D01*
X1515330Y986330D01*
X1507330Y977170D01*
G01X1410670Y980830D02*
X1418670Y986330D01*
X1428000Y990000D01*
X1438670D01*
X1450670Y984500D01*
X1460000Y975330D01*
X1466670Y964330D01*
X1472000Y946000D01*
X1473330Y929500D01*
X1470670Y913000D01*
X1466670Y902000D01*
X1458670Y891000D01*
X1449330Y883670D01*
X1440000Y880000D01*
X1430670D01*
X1421330Y883670D01*
X1413330Y889160D01*
X1406670Y896500D01*
G01X1383330Y880000D02*
X1350000Y990000D01*
X1316670Y880000D01*
G01X1328670Y918500D02*
X1371330D01*
G01X1260000Y880000D02*
X1250670Y881830D01*
X1240000Y887330D01*
X1233330Y896500D01*
X1230670Y909330D01*
X1233330Y922160D01*
X1241330Y933170D01*
X1253330Y938670D01*
X1266670D01*
X1274670Y942330D01*
X1281330Y951500D01*
X1284000Y964330D01*
X1280000Y977170D01*
X1270670Y986330D01*
X1260000Y990000D01*
X1249330Y986330D01*
X1240000Y977170D01*
X1236000Y964330D01*
X1238670Y951500D01*
X1245330Y942330D01*
X1253330Y938670D01*
X1266670D01*
X1278670Y933170D01*
X1286670Y922160D01*
X1289330Y909330D01*
X1286670Y896500D01*
X1280000Y887330D01*
X1269330Y881830D01*
X1260000Y880000D01*
G01X1199330Y902000D02*
X1191330Y889160D01*
X1180670Y881830D01*
X1168670Y880000D01*
X1158000Y881830D01*
X1147330Y891000D01*
X1140670Y902000D01*
X1139330Y913000D01*
X1142000Y925830D01*
X1151330Y935000D01*
X1160670Y938670D01*
X1172670D01*
G01X1160670D02*
X1152670Y944170D01*
X1146000Y953330D01*
X1143330Y964330D01*
X1146000Y975330D01*
X1152670Y984500D01*
X1164670Y990000D01*
X1176670Y988170D01*
X1188670Y980830D01*
G01X1080000Y990000D02*
X1090670Y986330D01*
X1098670Y977170D01*
X1104000Y966170D01*
X1108000Y951500D01*
X1109330Y935000D01*
X1108000Y918500D01*
X1104000Y903830D01*
X1098670Y892830D01*
X1090670Y883670D01*
X1080000Y880000D01*
X1069330Y883670D01*
X1061330Y892830D01*
X1056000Y903830D01*
X1052000Y918500D01*
X1050670Y935000D01*
X1052000Y951500D01*
X1056000Y966170D01*
X1061330Y977170D01*
X1069330Y986330D01*
X1080000Y990000D01*
G01X1019330Y880000D02*
Y990000D01*
X992670D01*
X982000Y984500D01*
X974000Y977170D01*
X967330Y966170D01*
X962000Y953330D01*
X960670Y935000D01*
X962000Y916670D01*
X967330Y903830D01*
X974000Y892830D01*
X982000Y885500D01*
X992670Y880000D01*
X1019330D01*
G01X900000Y990000D02*
X910670Y986330D01*
X918670Y977170D01*
X924000Y966170D01*
X928000Y951500D01*
X929330Y935000D01*
X928000Y918500D01*
X924000Y903830D01*
X918670Y892830D01*
X910670Y883670D01*
X900000Y880000D01*
X889330Y883670D01*
X881330Y892830D01*
X876000Y903830D01*
X872000Y918500D01*
X870670Y935000D01*
X872000Y951500D01*
X876000Y966170D01*
X881330Y977170D01*
X889330Y986330D01*
X900000Y990000D01*
G01X812670Y880000D02*
X810000Y903830D01*
X806000Y924000D01*
X800670Y942330D01*
X794000Y962500D01*
X783330Y990000D01*
X836670D01*
G01X760000Y843330D02*
X680000D01*
G01X663330Y990000D02*
X630000Y880000D01*
X596670Y990000D01*
G01X540000Y880000D02*
Y990000D01*
X556000Y968000D01*
G01Y880000D02*
X524000D01*
G01X450000Y990000D02*
X460670Y986330D01*
X468670Y977170D01*
X474000Y966170D01*
X478000Y951500D01*
X479330Y935000D01*
X478000Y918500D01*
X474000Y903830D01*
X468670Y892830D01*
X460670Y883670D01*
X450000Y880000D01*
X439330Y883670D01*
X431330Y892830D01*
X426000Y903830D01*
X422000Y918500D01*
X420670Y935000D01*
X422000Y951500D01*
X426000Y966170D01*
X431330Y977170D01*
X439330Y986330D01*
X450000Y990000D01*
G01X393330Y880000D02*
X360000Y990000D01*
X326670Y880000D01*
G01X338670Y918500D02*
X381330D01*
G01X1555330Y791670D02*
X1547330Y802660D01*
X1538000Y808170D01*
X1527330Y810000D01*
X1514000Y806330D01*
X1504670Y797170D01*
X1502000Y786170D01*
X1503330Y775160D01*
X1508670Y766000D01*
X1535330Y747670D01*
X1547330Y734830D01*
X1555330Y716500D01*
X1558000Y700000D01*
X1502000D01*
G01X1440000Y810000D02*
X1450670Y806330D01*
X1458670Y797170D01*
X1464000Y786170D01*
X1468000Y771500D01*
X1469330Y755000D01*
X1468000Y738500D01*
X1464000Y723830D01*
X1458670Y712830D01*
X1450670Y703670D01*
X1440000Y700000D01*
X1429330Y703670D01*
X1421330Y712830D01*
X1416000Y723830D01*
X1412000Y738500D01*
X1410670Y755000D01*
X1412000Y771500D01*
X1416000Y786170D01*
X1421330Y797170D01*
X1429330Y806330D01*
X1440000Y810000D01*
G01X1350000Y700000D02*
Y810000D01*
X1366000Y788000D01*
G01Y700000D02*
X1334000D01*
G01X1262670D02*
X1260000Y723830D01*
X1256000Y744000D01*
X1250670Y762330D01*
X1244000Y782500D01*
X1233330Y810000D01*
X1286670D01*
G01X1210000Y663330D02*
X1130000D01*
G01X1080000Y700000D02*
Y810000D01*
X1096000Y788000D01*
G01Y700000D02*
X1064000D01*
G01X990000Y810000D02*
X1000670Y806330D01*
X1008670Y797170D01*
X1014000Y786170D01*
X1018000Y771500D01*
X1019330Y755000D01*
X1018000Y738500D01*
X1014000Y723830D01*
X1008670Y712830D01*
X1000670Y703670D01*
X990000Y700000D01*
X979330Y703670D01*
X971330Y712830D01*
X966000Y723830D01*
X962000Y738500D01*
X960670Y755000D01*
X962000Y771500D01*
X966000Y786170D01*
X971330Y797170D01*
X979330Y806330D01*
X990000Y810000D01*
G01X940000Y663330D02*
X860000D01*
G01X839330Y722000D02*
X831330Y709160D01*
X820670Y701830D01*
X808670Y700000D01*
X798000Y701830D01*
X787330Y711000D01*
X780670Y722000D01*
X779330Y733000D01*
X782000Y745830D01*
X791330Y755000D01*
X800670Y758670D01*
X812670D01*
G01X800670D02*
X792670Y764170D01*
X786000Y773330D01*
X783330Y784330D01*
X786000Y795330D01*
X792670Y804500D01*
X804670Y810000D01*
X816670Y808170D01*
X828670Y800830D01*
G01X720000Y700000D02*
Y810000D01*
X736000Y788000D01*
G01Y700000D02*
X704000D01*
G01X1538000Y1050000D02*
Y1160000D01*
G01X1482000D02*
Y1050000D01*
G01Y1105000D02*
X1538000D01*
G01X1420000Y1050000D02*
Y1099500D01*
X1446670Y1160000D01*
G01X1393330D02*
X1420000Y1099500D01*
G01X1330000Y1050000D02*
X1340670Y1051830D01*
X1350000Y1059160D01*
X1358000Y1070170D01*
X1363330Y1083000D01*
X1366000Y1097670D01*
Y1112330D01*
X1363330Y1127000D01*
X1358000Y1139830D01*
X1350000Y1150830D01*
X1340670Y1158170D01*
X1330000Y1160000D01*
X1319330Y1158170D01*
X1310000Y1150830D01*
X1302000Y1139830D01*
X1296670Y1127000D01*
X1294000Y1112330D01*
Y1097670D01*
X1296670Y1083000D01*
X1302000Y1070170D01*
X1310000Y1059160D01*
X1319330Y1051830D01*
X1330000Y1050000D01*
G01X1210670Y1150830D02*
X1218670Y1156330D01*
X1228000Y1160000D01*
X1238670D01*
X1250670Y1154500D01*
X1260000Y1145330D01*
X1266670Y1134330D01*
X1272000Y1116000D01*
X1273330Y1099500D01*
X1270670Y1083000D01*
X1266670Y1072000D01*
X1258670Y1061000D01*
X1249330Y1053670D01*
X1240000Y1050000D01*
X1230670D01*
X1221330Y1053670D01*
X1213330Y1059160D01*
X1206670Y1066500D01*
G01X1660000Y1500000D02*
G03I-160000J0D01*
M02*
