G04 ================== begin FILE IDENTIFICATION RECORD ==================*
G04 Layout Name:  TPA61088_TEST_V10A.brd*
G04 Film Name:    ADB*
G04 File Format:  Gerber RS274X*
G04 File Origin:  Cadence Allegro 16.6-2015-S095*
G04 Origin Date:  Thu Nov 09 19:05:22 2017*
G04 *
G04 Layer:  REF DES/SILKSCREEN_BOTTOM*
G04 Layer:  PIN/BOTTOM*
G04 Layer:  PACKAGE GEOMETRY/SILKSCREEN_BOTTOM*
G04 Layer:  BOARD GEOMETRY/SILKSCREEN_BOTTOM*
G04 Layer:  BOARD GEOMETRY/OUTLINE*
G04 *
G04 Offset:    (0.0000 0.0000)*
G04 Mirror:    No*
G04 Mode:      Positive*
G04 Rotation:  0*
G04 FullContactRelief:  No*
G04 UndefLineWidth:     0.1524*
G04 ================== end FILE IDENTIFICATION RECORD ====================*
%FSLAX55Y55*MOMM*%
%IR0*IPPOS*OFA0.00000B0.00000*MIA0B0*SFA1.00000B1.00000*%
%ADD11C,2.54*%
%ADD10C,6.35*%
%ADD13C,1.778*%
%ADD12R,1.778X1.778*%
%ADD14C,.1524*%
G75*
%LPD*%
G75*
G54D10*
X330000Y330000D03*
Y2670000D03*
X6070000Y330000D03*
Y2670000D03*
G54D11*
X240000Y1118000D03*
Y1880000D03*
X6160000Y1130000D03*
Y1892000D03*
G54D12*
X2443000Y320000D03*
X2920000Y2650000D03*
X4003000Y320000D03*
G54D13*
X2412000Y2650000D03*
X2697000Y320000D03*
X2666000Y2650000D03*
X4257000Y320000D03*
G54D14*
G01X330000Y0D02*
X6070000D01*
G03X6400000Y330000I0J330000D01*
G01Y2670000D01*
G03X6070000Y3000000I-330000J0D01*
G01X330000D01*
G03X0Y2670000I0J-330000D01*
G01Y330000D01*
G03X330000Y0I330000J0D01*
G01X2230000Y360000D02*
Y250000D01*
G01X2260670Y360000D02*
X2199330D01*
G01X2166670Y250000D02*
Y360000D01*
X2134670D01*
X2124000Y354500D01*
X2116000Y341670D01*
X2113330Y327000D01*
X2116000Y312330D01*
X2122670Y301330D01*
X2134670Y295830D01*
X2166670D01*
G01X2078000Y264660D02*
X2067330Y255500D01*
X2055330Y250000D01*
X2044670D01*
X2034000Y255500D01*
X2026000Y264660D01*
X2022000Y277500D01*
X2024670Y290330D01*
X2031330Y301330D01*
X2043330Y308670D01*
X2059330Y312330D01*
X2068670Y319670D01*
X2072670Y332500D01*
X2070000Y345330D01*
X2063330Y354500D01*
X2054000Y360000D01*
X2044670D01*
X2035330Y356330D01*
X2027330Y347170D01*
G01X1985330Y295830D02*
X1976000Y308670D01*
X1968000Y316000D01*
X1957330Y319670D01*
X1948000Y316000D01*
X1941330Y308670D01*
X1936000Y297670D01*
X1934670Y284830D01*
X1936000Y273830D01*
X1941330Y262830D01*
X1949330Y253670D01*
X1958670Y250000D01*
X1969330Y253670D01*
X1978670Y264660D01*
X1984000Y281170D01*
X1985330Y299500D01*
X1982670Y323330D01*
X1978670Y336170D01*
X1972000Y349000D01*
X1962670Y358170D01*
X1953330Y360000D01*
X1944000Y356330D01*
X1937330Y347170D01*
G01X1870000Y250000D02*
Y360000D01*
X1886000Y338000D01*
G01Y250000D02*
X1854000D01*
G01X1780000Y360000D02*
X1790670Y356330D01*
X1798670Y347170D01*
X1804000Y336170D01*
X1808000Y321500D01*
X1809330Y305000D01*
X1808000Y288500D01*
X1804000Y273830D01*
X1798670Y262830D01*
X1790670Y253670D01*
X1780000Y250000D01*
X1769330Y253670D01*
X1761330Y262830D01*
X1756000Y273830D01*
X1752000Y288500D01*
X1750670Y305000D01*
X1752000Y321500D01*
X1756000Y336170D01*
X1761330Y347170D01*
X1769330Y356330D01*
X1780000Y360000D01*
G01X1690000Y250000D02*
X1680670Y251830D01*
X1670000Y257330D01*
X1663330Y266500D01*
X1660670Y279330D01*
X1663330Y292160D01*
X1671330Y303170D01*
X1683330Y308670D01*
X1696670D01*
X1704670Y312330D01*
X1711330Y321500D01*
X1714000Y334330D01*
X1710000Y347170D01*
X1700670Y356330D01*
X1690000Y360000D01*
X1679330Y356330D01*
X1670000Y347170D01*
X1666000Y334330D01*
X1668670Y321500D01*
X1675330Y312330D01*
X1683330Y308670D01*
X1696670D01*
X1708670Y303170D01*
X1716670Y292160D01*
X1719330Y279330D01*
X1716670Y266500D01*
X1710000Y257330D01*
X1699330Y251830D01*
X1690000Y250000D01*
G01X1600000D02*
X1590670Y251830D01*
X1580000Y257330D01*
X1573330Y266500D01*
X1570670Y279330D01*
X1573330Y292160D01*
X1581330Y303170D01*
X1593330Y308670D01*
X1606670D01*
X1614670Y312330D01*
X1621330Y321500D01*
X1624000Y334330D01*
X1620000Y347170D01*
X1610670Y356330D01*
X1600000Y360000D01*
X1589330Y356330D01*
X1580000Y347170D01*
X1576000Y334330D01*
X1578670Y321500D01*
X1585330Y312330D01*
X1593330Y308670D01*
X1606670D01*
X1618670Y303170D01*
X1626670Y292160D01*
X1629330Y279330D01*
X1626670Y266500D01*
X1620000Y257330D01*
X1609330Y251830D01*
X1600000Y250000D01*
G01X1550000Y213330D02*
X1470000D01*
G01X1420000Y360000D02*
Y250000D01*
G01X1450670Y360000D02*
X1389330D01*
G01X1303330Y250000D02*
X1356670D01*
Y360000D01*
X1303330D01*
G01X1324670Y306830D02*
X1356670D01*
G01X1268000Y264660D02*
X1257330Y255500D01*
X1245330Y250000D01*
X1234670D01*
X1224000Y255500D01*
X1216000Y264660D01*
X1212000Y277500D01*
X1214670Y290330D01*
X1221330Y301330D01*
X1233330Y308670D01*
X1249330Y312330D01*
X1258670Y319670D01*
X1262670Y332500D01*
X1260000Y345330D01*
X1253330Y354500D01*
X1244000Y360000D01*
X1234670D01*
X1225330Y356330D01*
X1217330Y347170D01*
G01X1150000Y360000D02*
Y250000D01*
G01X1180670Y360000D02*
X1119330D01*
G01X1100000Y213330D02*
X1020000D01*
G01X1003330Y360000D02*
X970000Y250000D01*
X936670Y360000D01*
G01X880000Y250000D02*
Y360000D01*
X896000Y338000D01*
G01Y250000D02*
X864000D01*
G01X790000Y360000D02*
X800670Y356330D01*
X808670Y347170D01*
X814000Y336170D01*
X818000Y321500D01*
X819330Y305000D01*
X818000Y288500D01*
X814000Y273830D01*
X808670Y262830D01*
X800670Y253670D01*
X790000Y250000D01*
X779330Y253670D01*
X771330Y262830D01*
X766000Y273830D01*
X762000Y288500D01*
X760670Y305000D01*
X762000Y321500D01*
X766000Y336170D01*
X771330Y347170D01*
X779330Y356330D01*
X790000Y360000D01*
G01X733330Y250000D02*
X700000Y360000D01*
X666670Y250000D01*
G01X678670Y288500D02*
X721330D01*
G01X2255330Y161670D02*
X2247330Y172660D01*
X2238000Y178170D01*
X2227330Y180000D01*
X2214000Y176330D01*
X2204670Y167170D01*
X2202000Y156170D01*
X2203330Y145160D01*
X2208670Y136000D01*
X2235330Y117670D01*
X2247330Y104830D01*
X2255330Y86500D01*
X2258000Y70000D01*
X2202000D01*
G01X2140000Y180000D02*
X2150670Y176330D01*
X2158670Y167170D01*
X2164000Y156170D01*
X2168000Y141500D01*
X2169330Y125000D01*
X2168000Y108500D01*
X2164000Y93830D01*
X2158670Y82830D01*
X2150670Y73670D01*
X2140000Y70000D01*
X2129330Y73670D01*
X2121330Y82830D01*
X2116000Y93830D01*
X2112000Y108500D01*
X2110670Y125000D01*
X2112000Y141500D01*
X2116000Y156170D01*
X2121330Y167170D01*
X2129330Y176330D01*
X2140000Y180000D01*
G01X2050000Y70000D02*
Y180000D01*
X2066000Y158000D01*
G01Y70000D02*
X2034000D01*
G01X1962670D02*
X1960000Y93830D01*
X1956000Y114000D01*
X1950670Y132330D01*
X1944000Y152500D01*
X1933330Y180000D01*
X1986670D01*
G01X1910000Y33330D02*
X1830000D01*
G01X1780000Y70000D02*
Y180000D01*
X1796000Y158000D01*
G01Y70000D02*
X1764000D01*
G01X1690000D02*
Y180000D01*
X1706000Y158000D01*
G01Y70000D02*
X1674000D01*
G01X1640000Y33330D02*
X1560000D01*
G01X1510000Y180000D02*
X1520670Y176330D01*
X1528670Y167170D01*
X1534000Y156170D01*
X1538000Y141500D01*
X1539330Y125000D01*
X1538000Y108500D01*
X1534000Y93830D01*
X1528670Y82830D01*
X1520670Y73670D01*
X1510000Y70000D01*
X1499330Y73670D01*
X1491330Y82830D01*
X1486000Y93830D01*
X1482000Y108500D01*
X1480670Y125000D01*
X1482000Y141500D01*
X1486000Y156170D01*
X1491330Y167170D01*
X1499330Y176330D01*
X1510000Y180000D01*
G01X1442670Y82830D02*
X1433330Y73670D01*
X1422670Y70000D01*
X1412000Y73670D01*
X1402670Y84660D01*
X1396000Y101170D01*
X1393330Y117670D01*
Y137830D01*
X1396000Y154330D01*
X1402670Y169000D01*
X1410670Y176330D01*
X1420000Y180000D01*
X1430670Y176330D01*
X1438670Y169000D01*
X1444000Y158000D01*
X1446670Y143330D01*
X1444000Y130500D01*
X1437330Y117670D01*
X1429330Y110330D01*
X1420000Y108500D01*
X1409330Y112160D01*
X1401330Y121330D01*
X1393330Y137830D01*
G01X2268000Y440000D02*
Y550000D01*
G01X2212000D02*
Y440000D01*
G01Y495000D02*
X2268000D01*
G01X2150000Y440000D02*
Y489500D01*
X2176670Y550000D01*
G01X2123330D02*
X2150000Y489500D01*
G01X2060000Y440000D02*
X2070670Y441830D01*
X2080000Y449160D01*
X2088000Y460170D01*
X2093330Y473000D01*
X2096000Y487670D01*
Y502330D01*
X2093330Y517000D01*
X2088000Y529830D01*
X2080000Y540830D01*
X2070670Y548170D01*
X2060000Y550000D01*
X2049330Y548170D01*
X2040000Y540830D01*
X2032000Y529830D01*
X2026670Y517000D01*
X2024000Y502330D01*
Y487670D01*
X2026670Y473000D01*
X2032000Y460170D01*
X2040000Y449160D01*
X2049330Y441830D01*
X2060000Y440000D01*
G01X1940670Y540830D02*
X1948670Y546330D01*
X1958000Y550000D01*
X1968670D01*
X1980670Y544500D01*
X1990000Y535330D01*
X1996670Y524330D01*
X2002000Y506000D01*
X2003330Y489500D01*
X2000670Y473000D01*
X1996670Y462000D01*
X1988670Y451000D01*
X1979330Y443670D01*
X1970000Y440000D01*
X1960670D01*
X1951330Y443670D01*
X1943330Y449160D01*
X1936670Y456500D01*
M02*
