G04 ================== begin FILE IDENTIFICATION RECORD ==================*
G04 Layout Name:  SCA830D07_V10A.brd*
G04 Film Name:    ADT*
G04 File Format:  Gerber RS274X*
G04 File Origin:  Cadence Allegro 16.6-2015-S095*
G04 Origin Date:  Tue Oct 31 11:40:28 2017*
G04 *
G04 Layer:  REF DES/SILKSCREEN_TOP*
G04 Layer:  PIN/TOP*
G04 Layer:  PACKAGE GEOMETRY/SILKSCREEN_TOP*
G04 Layer:  BOARD GEOMETRY/SILKSCREEN_TOP*
G04 Layer:  BOARD GEOMETRY/OUTLINE*
G04 *
G04 Offset:    (0.0000 0.0000)*
G04 Mirror:    No*
G04 Mode:      Positive*
G04 Rotation:  0*
G04 FullContactRelief:  No*
G04 UndefLineWidth:     0.1524*
G04 ================== end FILE IDENTIFICATION RECORD ====================*
%FSLAX55Y55*MOMM*%
%IR0*IPPOS*OFA0.00000B0.00000*MIA0B0*SFA1.00000B1.00000*%
%ADD11R,1.5X.6*%
%ADD14R,.9X5.*%
%ADD15R,1.27X1.27*%
%ADD10R,1.016X1.2192*%
%ADD13R,.9144X.9144*%
%ADD16R,.9144X.9144*%
%ADD12R,1.1938X1.1938*%
%ADD17C,.2032*%
%ADD18C,.254*%
%ADD19C,.1524*%
%ADD20C,.1778*%
G75*
%LPD*%
G75*
G36*
G01X81600Y1570000D02*
G03I-31600J0D01*
G37*
G36*
G01X480000Y1320000D02*
X540000D01*
Y1200000D01*
X570000D01*
X510000Y1140000D01*
X450000Y1200000D01*
X480000D01*
Y1320000D01*
G37*
G36*
G01X541600D02*
G03I-31600J0D01*
G37*
G36*
G01X1000000Y640000D02*
G03I-20000J0D01*
G37*
G36*
G01X1680000Y1250000D02*
X1740000D01*
Y1130000D01*
X1770000D01*
X1710000Y1070000D01*
X1650000Y1130000D01*
X1680000D01*
Y1250000D01*
G37*
G36*
G01X1741600D02*
G03I-31600J0D01*
G37*
G54D10*
X108400Y700000D03*
X311600D03*
G54D20*
G01X240480Y636500D02*
X176980Y700000D01*
X240480Y763500D01*
Y636500D01*
X222700Y654280D01*
Y738100D01*
X210000Y725400D01*
Y674600D01*
X197300Y687300D01*
Y712700D01*
G54D11*
X165500Y1070000D03*
Y1170000D03*
Y1270000D03*
Y1370000D03*
Y1470000D03*
Y1570000D03*
X854500Y1170000D03*
Y1070000D03*
Y1570000D03*
Y1470000D03*
Y1370000D03*
Y1270000D03*
G54D12*
X740000Y165860D03*
Y374140D03*
G54D13*
X750000Y603800D03*
X590000D03*
X750000Y756200D03*
X590000D03*
X1070000Y1646200D03*
Y1493800D03*
G54D14*
X1260000Y320000D03*
X1120000D03*
X980000D03*
X1680000D03*
X1540000D03*
X1400000D03*
G54D15*
X1085860Y1030000D03*
X1294140D03*
G54D16*
X1226200Y1210000D03*
X1073800D03*
G54D17*
G01X32200Y611100D02*
X387800D01*
Y788900D01*
X32200D01*
Y611100D01*
G01X813500Y819700D02*
Y540300D01*
X686500D01*
Y819700D01*
G01X653500Y540300D02*
X526500D01*
G01D02*
Y819700D01*
X653500D01*
Y540300D01*
G01X686500Y819700D02*
X813500D01*
G01X1010300Y1146500D02*
X1289700D01*
G01X1292240Y1273500D02*
G02Y1146500I-73330J-63500D01*
G01X1010300Y1273500D02*
G03Y1146500I71651J-63500D01*
G01X1002040Y948720D02*
G02Y1111280I106888J81280D01*
G01X1375420D02*
X1004580D01*
G01Y948720D02*
X1375420D01*
G01X1006500Y1709700D02*
Y1430300D01*
G01X1133500D02*
Y1709700D01*
G01X1006500Y1430300D02*
G03X1133500I63500J71651D01*
G01X1289700Y1273500D02*
X1010300D01*
G01X1006500Y1712240D02*
G02X1133500I63500J-73330D01*
G01X1375420Y948720D02*
G03Y1111280I-106888J81280D01*
G54D18*
G01X880000Y1020000D02*
Y870000D01*
X140000D01*
Y1020000D01*
G01Y1620000D02*
Y1770000D01*
X880000D01*
Y1620000D01*
G01X820000Y460000D02*
Y80000D01*
X660000D01*
Y460000D01*
X820000D01*
G01X510000Y1010000D02*
Y1130000D01*
G01X450000Y1070000D02*
X570000D01*
G01X910000Y600000D02*
X1750000D01*
Y40000D01*
X910000D01*
Y600000D01*
G01X1710000Y940000D02*
Y1060000D01*
G01X1650000Y1000000D02*
X1770000D01*
G54D19*
G01X100000Y0D02*
X1700000D01*
G03X1800000Y100000I0J100000D01*
G01Y1700000D01*
G03X1700000Y1800000I-100000J0D01*
G01X100000D01*
G03X0Y1700000I0J-100000D01*
G01Y100000D01*
G03X100000Y0I100000J0D01*
G01X550000Y300000D02*
G03I-250000J0D01*
G01X460000D02*
G03I-160000J0D01*
G01X20670Y480000D02*
Y590000D01*
X47330D01*
X58000Y584500D01*
X66000Y577170D01*
X72670Y566170D01*
X78000Y553330D01*
X79330Y535000D01*
X78000Y516670D01*
X72670Y503830D01*
X66000Y492830D01*
X58000Y485500D01*
X47330Y480000D01*
X20670D01*
G01X140000D02*
Y590000D01*
X124000Y568000D01*
G01Y480000D02*
X156000D01*
G01X503330Y130000D02*
Y20000D01*
X556670D01*
G01X620000D02*
Y130000D01*
X604000Y108000D01*
G01Y20000D02*
X636000D01*
G01X790800Y270000D02*
X689200D01*
G01X510000Y693330D02*
X400000D01*
Y726670D01*
X405500Y737330D01*
X412830Y744000D01*
X427500Y746670D01*
X442170Y744000D01*
X451330Y736000D01*
X456830Y726670D01*
Y693330D01*
G01Y726670D02*
X510000Y746670D01*
G01X418330Y784670D02*
X407340Y792670D01*
X401830Y802000D01*
X400000Y812670D01*
X403670Y826000D01*
X412830Y835330D01*
X423830Y838000D01*
X434840Y836670D01*
X444000Y831330D01*
X462330Y804670D01*
X475170Y792670D01*
X493500Y784670D01*
X510000Y782000D01*
Y838000D01*
G01X940000Y693330D02*
X830000D01*
Y726670D01*
X835500Y737330D01*
X842830Y744000D01*
X857500Y746670D01*
X872170Y744000D01*
X881330Y736000D01*
X886830Y726670D01*
Y693330D01*
G01Y726670D02*
X940000Y746670D01*
G01Y810000D02*
X830000D01*
X852000Y794000D01*
G01X940000D02*
Y826000D01*
G01X1750000Y1500000D02*
G03I-250000J0D01*
G01X1169170Y1669330D02*
X1163670Y1661330D01*
X1160000Y1652000D01*
Y1641330D01*
X1165500Y1629330D01*
X1174670Y1620000D01*
X1185670Y1613330D01*
X1204000Y1608000D01*
X1220500Y1606670D01*
X1237000Y1609330D01*
X1248000Y1613330D01*
X1259000Y1621330D01*
X1266330Y1630670D01*
X1270000Y1640000D01*
Y1649330D01*
X1266330Y1658670D01*
X1260840Y1666670D01*
X1253500Y1673330D01*
G01X1270000Y1730000D02*
X1160000D01*
X1182000Y1714000D01*
G01X1270000D02*
Y1746000D01*
G01X960670Y1390000D02*
Y1311170D01*
X966000Y1294660D01*
X976670Y1283670D01*
X990000Y1280000D01*
X1003330Y1283670D01*
X1014000Y1294660D01*
X1019330Y1311170D01*
Y1390000D01*
G01X1080000Y1280000D02*
Y1390000D01*
X1064000Y1368000D01*
G01Y1280000D02*
X1096000D01*
G01X1628330Y662000D02*
X1635000Y651000D01*
X1643000Y643670D01*
X1652330Y640000D01*
X1663000Y643670D01*
X1671000Y651000D01*
X1679000Y662000D01*
X1681670Y676670D01*
Y750000D01*
G01X1745000Y640000D02*
Y750000D01*
X1729000Y728000D01*
G01Y640000D02*
X1761000D01*
G01X1489330Y1210830D02*
X1481330Y1216330D01*
X1472000Y1220000D01*
X1461330D01*
X1449330Y1214500D01*
X1440000Y1205330D01*
X1433330Y1194330D01*
X1428000Y1176000D01*
X1426670Y1159500D01*
X1429330Y1143000D01*
X1433330Y1132000D01*
X1441330Y1121000D01*
X1450670Y1113670D01*
X1460000Y1110000D01*
X1469330D01*
X1478670Y1113670D01*
X1486670Y1119160D01*
X1493330Y1126500D01*
G01X1524670Y1201670D02*
X1532670Y1212660D01*
X1542000Y1218170D01*
X1552670Y1220000D01*
X1566000Y1216330D01*
X1575330Y1207170D01*
X1578000Y1196170D01*
X1576670Y1185160D01*
X1571330Y1176000D01*
X1544670Y1157670D01*
X1532670Y1144830D01*
X1524670Y1126500D01*
X1522000Y1110000D01*
X1578000D01*
G01X1489330Y1070830D02*
X1481330Y1076330D01*
X1472000Y1080000D01*
X1461330D01*
X1449330Y1074500D01*
X1440000Y1065330D01*
X1433330Y1054330D01*
X1428000Y1036000D01*
X1426670Y1019500D01*
X1429330Y1003000D01*
X1433330Y992000D01*
X1441330Y981000D01*
X1450670Y973670D01*
X1460000Y970000D01*
X1469330D01*
X1478670Y973670D01*
X1486670Y979160D01*
X1493330Y986500D01*
G01X1520670Y992000D02*
X1528670Y979160D01*
X1539330Y971830D01*
X1551330Y970000D01*
X1562000Y971830D01*
X1572670Y981000D01*
X1579330Y992000D01*
X1580670Y1003000D01*
X1578000Y1015830D01*
X1568670Y1025000D01*
X1559330Y1028670D01*
X1547330D01*
G01X1559330D02*
X1567330Y1034170D01*
X1574000Y1043330D01*
X1576670Y1054330D01*
X1574000Y1065330D01*
X1567330Y1074500D01*
X1555330Y1080000D01*
X1543330Y1078170D01*
X1531330Y1070830D01*
G01X1660000Y1500000D02*
G03I-160000J0D01*
M02*
