G04 ================== begin FILE IDENTIFICATION RECORD ==================*
G04 Layout Name:  TPA61088_TEST_V10A.brd*
G04 Film Name:    BOTTOM*
G04 File Format:  Gerber RS274X*
G04 File Origin:  Cadence Allegro 16.6-2015-S095*
G04 Origin Date:  Thu Nov 09 19:05:22 2017*
G04 *
G04 Layer:  BOARD GEOMETRY/OUTLINE*
G04 Layer:  ETCH/BOTTOM*
G04 Layer:  PIN/BOTTOM*
G04 Layer:  VIA CLASS/BOTTOM*
G04 *
G04 Offset:    (0.0000 0.0000)*
G04 Mirror:    No*
G04 Mode:      Positive*
G04 Rotation:  0*
G04 FullContactRelief:  No*
G04 UndefLineWidth:     0.1524*
G04 ================== end FILE IDENTIFICATION RECORD ====================*
%FSLAX55Y55*MOMM*%
%IR0*IPPOS*OFA0.00000B0.00000*MIA0B0*SFA1.00000B1.00000*%
%ADD12C,.6096*%
%ADD11C,2.54*%
%ADD10C,6.35*%
%ADD14C,1.778*%
%ADD13R,1.778X1.778*%
%ADD15C,.1524*%
%ADD16C,3.5564*%
%ADD17R,2.7944X2.7944*%
G75*
%LPD*%
G75*
G36*
G01X330000Y10000D02*
X10000Y330000D01*
Y2670000D01*
X330000Y2990000D01*
X6070000D01*
X6390000Y2670000D01*
Y330000D01*
X6070000Y10000D01*
X330000D01*
G37*
%LPC*%
G75*
G36*
G01X2780280Y2520450D02*
G03X2748030Y2536900I-20321J-1D01*
G02Y2763100I-82030J113100D01*
G03X2780280Y2779550I11929J16451D01*
G01Y2789720D01*
X3059720D01*
Y2510280D01*
X2780280D01*
Y2520450D01*
G37*
G36*
G01X2582720Y190450D02*
Y180280D01*
X2303280D01*
Y459720D01*
X2582720D01*
Y449550D01*
G03X2614970Y433100I20321J1D01*
G02Y206900I82030J-113100D01*
G03X2582720Y190450I-11929J-16451D01*
G37*
G54D16*
X240000Y1880000D03*
X6160000Y1130000D03*
G54D17*
X4003000Y320000D03*
%LPD*%
G75*
G54D10*
X330000Y330000D03*
Y2670000D03*
X6070000Y330000D03*
Y2670000D03*
G54D11*
X240000Y1118000D03*
Y1880000D03*
X6160000Y1130000D03*
Y1892000D03*
G54D12*
X109580Y812060D03*
X89580Y1382060D03*
X309580Y812060D03*
X509580D03*
X709580D03*
X289580Y1382060D03*
X489580D03*
X689580D03*
X765460Y2395330D03*
Y2595330D03*
Y2795330D03*
X1313620Y120660D03*
X1113620D03*
X913620D03*
Y310660D03*
X1113620D03*
X1313620D03*
X1319580Y812060D03*
X1119580D03*
X919580D03*
Y1002060D03*
X1119580D03*
X1319580D03*
X965460Y2395330D03*
X1165460D03*
X965460Y2595330D03*
X1165460D03*
X965460Y2795330D03*
X1165460D03*
X1813620Y490660D03*
X1713620Y120660D03*
X1513620D03*
Y310660D03*
X1713620D03*
X1813620Y680660D03*
X1719580Y812060D03*
X1519580D03*
Y1002060D03*
X1719580D03*
X1365460Y2395330D03*
X1565460D03*
X1765460D03*
X1365460Y2595330D03*
X1565460D03*
X1765460D03*
X1365460Y2795330D03*
X1565460D03*
X1765460D03*
X2013620Y490660D03*
X2213620D03*
X2113620Y120660D03*
X1913620D03*
Y310660D03*
X2113620D03*
X2213620Y680660D03*
X2013620D03*
X1965460Y2395330D03*
X2165460D03*
X1965460Y2595330D03*
X2165460D03*
X1965460Y2795330D03*
X2165460D03*
X2985400Y184790D03*
X3185400D03*
X3385400D03*
X2985400Y384790D03*
X3185400D03*
X3385400D03*
X2985400Y584790D03*
X3185400D03*
X3385400D03*
Y904790D03*
X3484790Y904600D03*
X3480000Y1120000D03*
X3484790Y1014600D03*
X3385400Y1114790D03*
Y1014790D03*
X2985400Y784790D03*
X3185400D03*
X3385400D03*
X3484790Y1214600D03*
X3385400Y1214790D03*
X3380000Y1440000D03*
X3450000D03*
X3310000D03*
X3380000Y1500000D03*
X3450000D03*
X3310000D03*
X3380000Y1620000D03*
X3450000D03*
X3310000D03*
X3380000Y1680000D03*
X3450000D03*
X3310000D03*
Y1560000D03*
X3450000D03*
X3380000D03*
X3365400Y2224790D03*
X3464790Y2224600D03*
X3470000Y2010000D03*
X3464790Y1914600D03*
Y2114600D03*
X3365400Y2014790D03*
Y2114790D03*
Y1914790D03*
X3328740Y2432960D03*
Y2632960D03*
Y2832960D03*
X3837830Y542850D03*
X4037830D03*
X3585400Y184790D03*
Y384790D03*
Y584790D03*
X4037830Y1142850D03*
X3837830D03*
X3585400Y904790D03*
Y1114790D03*
Y1014790D03*
X3837830Y742850D03*
X4037830D03*
X3837830Y942850D03*
X4037830D03*
X3585400Y784790D03*
X3840000Y1310000D03*
X3585400Y1214790D03*
X3565400Y2224790D03*
Y2014790D03*
Y2114790D03*
Y1914790D03*
X3528740Y2432960D03*
X3728740D03*
X3928740D03*
X3528740Y2632960D03*
X3728740D03*
X3928740D03*
X3528740Y2832960D03*
X3728740D03*
X3928740D03*
X4437830Y142850D03*
Y342850D03*
X4237830Y542850D03*
X4437830D03*
X4237830Y742850D03*
X4437830D03*
X4237830Y942850D03*
X4437830D03*
X4135350Y2056700D03*
X4335350D03*
X4535350D03*
X4128740Y2432960D03*
X4328740D03*
X4528740D03*
X4128740Y2632960D03*
X4328740D03*
X4528740D03*
X4128740Y2832960D03*
X4328740D03*
X4528740D03*
X4637830Y142850D03*
X4837830D03*
X4637830Y342850D03*
X4837830D03*
X4637830Y542850D03*
X4837830D03*
X4637830Y742850D03*
X4837830D03*
X4637830Y942850D03*
X4837830D03*
X4945350Y1736700D03*
X4735350Y2056700D03*
X4935350D03*
X4728740Y2432960D03*
X4928740D03*
X4728740Y2632960D03*
X4928740D03*
X4728740Y2832960D03*
X4928740D03*
X5145350Y1736700D03*
X5345350D03*
X5545350D03*
X5135350Y2056700D03*
X5335350D03*
X5535350D03*
X5128740Y2432960D03*
X5328740D03*
X5528740D03*
X5128740Y2632960D03*
X5328740D03*
X5528740D03*
X5128740Y2832960D03*
X5328740D03*
X5528740D03*
X5745350Y1736700D03*
X5945350D03*
G54D13*
X2443000Y320000D03*
X2920000Y2650000D03*
X4003000Y320000D03*
G54D14*
X2412000Y2650000D03*
X2697000Y320000D03*
X2666000Y2650000D03*
X4257000Y320000D03*
G54D15*
G01X330000Y0D02*
X6070000D01*
G03X6400000Y330000I0J330000D01*
G01Y2670000D01*
G03X6070000Y3000000I-330000J0D01*
G01X330000D01*
G03X0Y2670000I0J-330000D01*
G01Y330000D01*
G03X330000Y0I330000J0D01*
M02*
