G04 ================== begin FILE IDENTIFICATION RECORD ==================*
G04 Layout Name:  TPA61088_TEST_V10A.brd*
G04 Film Name:    Drill_Legend*
G04 File Format:  Gerber RS274X*
G04 File Origin:  Cadence Allegro 16.6-2015-S095*
G04 Origin Date:  Thu Nov 09 19:05:22 2017*
G04 *
G04 Layer:  MANUFACTURING/NCDRILL_LEGEND*
G04 Layer:  MANUFACTURING/NCDRILL_FIGURE*
G04 Layer:  BOARD GEOMETRY/DIMENSION*
G04 Layer:  MANUFACTURING/NCLEGEND-1-2*
G04 Layer:  BOARD GEOMETRY/OUTLINE*
G04 *
G04 Offset:    (0.0000 0.0000)*
G04 Mirror:    No*
G04 Mode:      Positive*
G04 Rotation:  0*
G04 FullContactRelief:  No*
G04 UndefLineWidth:     0.1524*
G04 ================== end FILE IDENTIFICATION RECORD ====================*
%FSLAX55Y55*MOMM*%
%IR0*IPPOS*OFA0.00000B0.00000*MIA0B0*SFA1.00000B1.00000*%
%AMMACRO12*
1,1,.1524,.1524,0.0*
20,1,.1524,.1524,0.0,-.1524,0.0,0.0*
1,1,.1524,-.1524,0.0*
1,1,.1524,0.0,.1524*
20,1,.1524,0.0,.1524,0.0,-.1524,0.0*
1,1,.1524,0.0,-.1524*
%
%ADD12MACRO12*%
%AMMACRO13*
1,1,.1524,.4445,.4445*
20,1,.1524,.4445,.4445,.4445,-.4445,0.0*
1,1,.1524,.4445,-.4445*
20,1,.1524,.4445,-.4445,-.4445,-.4445,0.0*
1,1,.1524,-.4445,-.4445*
20,1,.1524,-.4445,-.4445,-.4445,.4445,0.0*
1,1,.1524,-.4445,.4445*
20,1,.1524,-.4445,.4445,.4445,.4445,0.0*
1,1,.1524,.4445,.4445*
%
%ADD13MACRO13*%
%AMMACRO11*
1,1,.1524,.762,0.0*
20,1,.1524,.762,0.0,.381,.659911,0.0*
1,1,.1524,.381,.659911*
20,1,.1524,.381,.659911,-.381,.659911,0.0*
1,1,.1524,-.381,.659911*
20,1,.1524,-.381,.659911,-.762,0.0,0.0*
1,1,.1524,-.762,0.0*
20,1,.1524,-.762,0.0,-.381,-.659911,0.0*
1,1,.1524,-.381,-.659911*
20,1,.1524,-.381,-.659911,.381,-.659911,0.0*
1,1,.1524,.381,-.659911*
20,1,.1524,.381,-.659911,.762,0.0,0.0*
1,1,.1524,.762,0.0*
%
%ADD11MACRO11*%
%AMMACRO10*
1,1,.1524,0.0,1.7018*
20,1,.1524,0.0,1.7018,-1.473802,.8509,0.0*
1,1,.1524,-1.473802,.8509*
20,1,.1524,-1.473802,.8509,-1.473802,-.8509,0.0*
1,1,.1524,-1.473802,-.8509*
20,1,.1524,-1.473802,-.8509,0.0,-1.7018,0.0*
1,1,.1524,0.0,-1.7018*
20,1,.1524,0.0,-1.7018,1.473802,-.8509,0.0*
1,1,.1524,1.473802,-.8509*
20,1,.1524,1.473802,-.8509,1.473802,.8509,0.0*
1,1,.1524,1.473802,.8509*
20,1,.1524,1.473802,.8509,0.0,1.7018,0.0*
1,1,.1524,0.0,1.7018*
%
%ADD10MACRO10*%
%ADD14C,.1524*%
G75*
%LPD*%
G75*
G54D10*
X330000Y330000D03*
Y2670000D03*
X6070000Y330000D03*
Y2670000D03*
X8051730Y347500D03*
G54D11*
X240000Y1118000D03*
Y1880000D03*
X6160000Y1130000D03*
Y1892000D03*
X8051730Y982500D03*
G54D12*
X109580Y812060D03*
X89580Y1382060D03*
X309580Y812060D03*
X509580D03*
X709580D03*
X289580Y1382060D03*
X489580D03*
X689580D03*
X765460Y2395330D03*
Y2595330D03*
Y2795330D03*
X1313620Y120660D03*
X1113620D03*
X913620D03*
Y310660D03*
X1113620D03*
X1313620D03*
X1319580Y812060D03*
X1119580D03*
X919580D03*
Y1002060D03*
X1119580D03*
X1319580D03*
X965460Y2395330D03*
X1165460D03*
X965460Y2595330D03*
X1165460D03*
X965460Y2795330D03*
X1165460D03*
X1813620Y490660D03*
X1713620Y120660D03*
X1513620D03*
Y310660D03*
X1713620D03*
X1813620Y680660D03*
X1719580Y812060D03*
X1519580D03*
Y1002060D03*
X1719580D03*
X1365460Y2395330D03*
X1565460D03*
X1765460D03*
X1365460Y2595330D03*
X1565460D03*
X1765460D03*
X1365460Y2795330D03*
X1565460D03*
X1765460D03*
X2013620Y490660D03*
X2213620D03*
X2113620Y120660D03*
X1913620D03*
Y310660D03*
X2113620D03*
X2213620Y680660D03*
X2013620D03*
X1965460Y2395330D03*
X2165460D03*
X1965460Y2595330D03*
X2165460D03*
X1965460Y2795330D03*
X2165460D03*
X2985400Y184790D03*
X3185400D03*
X3385400D03*
X2985400Y384790D03*
X3185400D03*
X3385400D03*
X2985400Y584790D03*
X3185400D03*
X3385400D03*
Y904790D03*
X3484790Y904600D03*
X3480000Y1120000D03*
X3484790Y1014600D03*
X3385400Y1114790D03*
Y1014790D03*
X2985400Y784790D03*
X3185400D03*
X3385400D03*
X3484790Y1214600D03*
X3385400Y1214790D03*
X3380000Y1440000D03*
X3450000D03*
X3310000D03*
X3380000Y1500000D03*
X3450000D03*
X3310000D03*
X3380000Y1620000D03*
X3450000D03*
X3310000D03*
X3380000Y1680000D03*
X3450000D03*
X3310000D03*
Y1560000D03*
X3450000D03*
X3380000D03*
X3365400Y2224790D03*
X3464790Y2224600D03*
X3470000Y2010000D03*
X3464790Y1914600D03*
Y2114600D03*
X3365400Y2014790D03*
Y2114790D03*
Y1914790D03*
X3328740Y2432960D03*
Y2632960D03*
Y2832960D03*
X3837830Y542850D03*
X4037830D03*
X3585400Y184790D03*
Y384790D03*
Y584790D03*
X4037830Y1142850D03*
X3837830D03*
X3585400Y904790D03*
Y1114790D03*
Y1014790D03*
X3837830Y742850D03*
X4037830D03*
X3837830Y942850D03*
X4037830D03*
X3585400Y784790D03*
X3840000Y1310000D03*
X3585400Y1214790D03*
X3565400Y2224790D03*
Y2014790D03*
Y2114790D03*
Y1914790D03*
X3528740Y2432960D03*
X3728740D03*
X3928740D03*
X3528740Y2632960D03*
X3728740D03*
X3928740D03*
X3528740Y2832960D03*
X3728740D03*
X3928740D03*
X4437830Y142850D03*
Y342850D03*
X4237830Y542850D03*
X4437830D03*
X4237830Y742850D03*
X4437830D03*
X4237830Y942850D03*
X4437830D03*
X4135350Y2056700D03*
X4335350D03*
X4535350D03*
X4128740Y2432960D03*
X4328740D03*
X4528740D03*
X4128740Y2632960D03*
X4328740D03*
X4528740D03*
X4128740Y2832960D03*
X4328740D03*
X4528740D03*
X4637830Y142850D03*
X4837830D03*
X4637830Y342850D03*
X4837830D03*
X4637830Y542850D03*
X4837830D03*
X4637830Y742850D03*
X4837830D03*
X4637830Y942850D03*
X4837830D03*
X4945350Y1736700D03*
X4735350Y2056700D03*
X4935350D03*
X4728740Y2432960D03*
X4928740D03*
X4728740Y2632960D03*
X4928740D03*
X4728740Y2832960D03*
X4928740D03*
X5145350Y1736700D03*
X5345350D03*
X5545350D03*
X5135350Y2056700D03*
X5335350D03*
X5535350D03*
X5128740Y2432960D03*
X5328740D03*
X5528740D03*
X5128740Y2632960D03*
X5328740D03*
X5528740D03*
X5128740Y2832960D03*
X5328740D03*
X5528740D03*
X5745350Y1736700D03*
X5945350D03*
X8051730Y2252500D03*
G54D13*
X2443000Y320000D03*
X2412000Y2650000D03*
X2697000Y320000D03*
X2920000Y2650000D03*
X2666000D03*
X4003000Y320000D03*
X4257000D03*
X8051730Y1617500D03*
G54D14*
G01X-1417400Y1342850D02*
X-1403180Y1320620D01*
X-1384220Y1307920D01*
X-1362880Y1304750D01*
X-1343910Y1307920D01*
X-1324950Y1323800D01*
X-1313100Y1342850D01*
X-1310730Y1361900D01*
X-1315470Y1384120D01*
X-1332060Y1400000D01*
X-1348660Y1406350D01*
X-1369990D01*
G01X-1348660D02*
X-1334430Y1415870D01*
X-1322580Y1431750D01*
X-1317840Y1450800D01*
X-1322580Y1469850D01*
X-1334430Y1485720D01*
X-1355770Y1495250D01*
X-1377100Y1492080D01*
X-1398440Y1479370D01*
G01X-1174750Y1495250D02*
X-1193720Y1488900D01*
X-1207940Y1473020D01*
X-1217420Y1453980D01*
X-1224530Y1428570D01*
X-1226900Y1400000D01*
X-1224530Y1371420D01*
X-1217420Y1346020D01*
X-1207940Y1326970D01*
X-1193720Y1311100D01*
X-1174750Y1304750D01*
X-1155790Y1311100D01*
X-1141560Y1326970D01*
X-1132080Y1346020D01*
X-1124970Y1371420D01*
X-1122600Y1400000D01*
X-1124970Y1428570D01*
X-1132080Y1453980D01*
X-1141560Y1473020D01*
X-1155790Y1488900D01*
X-1174750Y1495250D01*
G01X-1040790Y1133500D02*
X-1026570Y1152550D01*
X-1009970Y1162080D01*
X-991010Y1165250D01*
X-967300Y1158900D01*
X-950710Y1143020D01*
X-945970Y1123980D01*
X-948340Y1104920D01*
X-957820Y1089050D01*
X-1005230Y1057300D01*
X-1026570Y1035070D01*
X-1040790Y1003320D01*
X-1045530Y974750D01*
X-945970D01*
G01X-850290Y1054120D02*
X-833700Y1076350D01*
X-819470Y1089050D01*
X-800510Y1095400D01*
X-783910Y1089050D01*
X-772060Y1076350D01*
X-762580Y1057300D01*
X-760210Y1035070D01*
X-762580Y1016020D01*
X-772060Y996970D01*
X-786290Y981100D01*
X-802880Y974750D01*
X-821840Y981100D01*
X-838440Y1000140D01*
X-847920Y1028730D01*
X-850290Y1060470D01*
X-845550Y1101750D01*
X-838440Y1123980D01*
X-826590Y1146200D01*
X-809990Y1162080D01*
X-793400Y1165250D01*
X-776800Y1158900D01*
X-764950Y1143020D01*
G01X-614750Y968400D02*
X-619490Y971580D01*
Y977920D01*
X-614750Y981100D01*
X-610010Y977920D01*
Y971580D01*
X-614750Y968400D01*
G01X-428990Y974750D02*
X-424250Y1016020D01*
X-417140Y1050950D01*
X-407660Y1082700D01*
X-395800Y1117620D01*
X-376840Y1165250D01*
X-471660D01*
G01X-562650Y102850D02*
X-548430Y80620D01*
X-529470Y67920D01*
X-508130Y64750D01*
X-489160Y67920D01*
X-470200Y83800D01*
X-458350Y102850D01*
X-455980Y121900D01*
X-460720Y144120D01*
X-477310Y160000D01*
X-493910Y166350D01*
X-515240D01*
G01X-493910D02*
X-479680Y175870D01*
X-467830Y191750D01*
X-463090Y210800D01*
X-467830Y229850D01*
X-479680Y245720D01*
X-501020Y255250D01*
X-522350Y252080D01*
X-543690Y239370D01*
G01X-320000Y58400D02*
X-324740Y61580D01*
Y67920D01*
X-320000Y71100D01*
X-315260Y67920D01*
Y61580D01*
X-320000Y58400D01*
G01X-181650Y102850D02*
X-167430Y80620D01*
X-148470Y67920D01*
X-127130Y64750D01*
X-108160Y67920D01*
X-89200Y83800D01*
X-77350Y102850D01*
X-74980Y121900D01*
X-79720Y144120D01*
X-96310Y160000D01*
X-112910Y166350D01*
X-134240D01*
G01X-112910D02*
X-98680Y175870D01*
X-86830Y191750D01*
X-82090Y210800D01*
X-86830Y229850D01*
X-98680Y245720D01*
X-120020Y255250D01*
X-141350Y252080D01*
X-162690Y239370D01*
G01X-72650Y-427150D02*
X-58430Y-449380D01*
X-39470Y-462080D01*
X-18130Y-465250D01*
X840Y-462080D01*
X19800Y-446200D01*
X31650Y-427150D01*
X34020Y-408100D01*
X29280Y-385880D01*
X12690Y-370000D01*
X-3910Y-363650D01*
X-25240D01*
G01X-3910D02*
X10320Y-354130D01*
X22170Y-338250D01*
X26910Y-319200D01*
X22170Y-300150D01*
X10320Y-284280D01*
X-11020Y-274750D01*
X-32350Y-277920D01*
X-53690Y-290630D01*
G01X170000Y-471600D02*
X165260Y-468420D01*
Y-462080D01*
X170000Y-458900D01*
X174740Y-462080D01*
Y-468420D01*
X170000Y-471600D01*
G01X308350Y-427150D02*
X322570Y-449380D01*
X341530Y-462080D01*
X362870Y-465250D01*
X381840Y-462080D01*
X400800Y-446200D01*
X412650Y-427150D01*
X415020Y-408100D01*
X410280Y-385880D01*
X393690Y-370000D01*
X377090Y-363650D01*
X355760D01*
G01X377090D02*
X391320Y-354130D01*
X403170Y-338250D01*
X407910Y-319200D01*
X403170Y-300150D01*
X391320Y-284280D01*
X369980Y-274750D01*
X348650Y-277920D01*
X327310Y-290630D01*
G01X330000Y0D02*
X6070000D01*
G03X6400000Y330000I0J330000D01*
G01Y2670000D01*
G03X6070000Y3000000I-330000J0D01*
G01X330000D01*
G03X0Y2670000I0J-330000D01*
G01Y330000D01*
G03X330000Y0I330000J0D01*
G01X2609210Y-685880D02*
X2625800Y-663650D01*
X2640030Y-650950D01*
X2658990Y-644600D01*
X2675590Y-650950D01*
X2687440Y-663650D01*
X2696920Y-682700D01*
X2699290Y-704930D01*
X2696920Y-723980D01*
X2687440Y-743030D01*
X2673210Y-758900D01*
X2656620Y-765250D01*
X2637660Y-758900D01*
X2621060Y-739860D01*
X2611580Y-711270D01*
X2609210Y-679530D01*
X2613950Y-638250D01*
X2621060Y-616020D01*
X2632910Y-593800D01*
X2649510Y-577920D01*
X2666100Y-574750D01*
X2682700Y-581100D01*
X2694550Y-596980D01*
G01X2844750Y-574750D02*
X2825780Y-581100D01*
X2811560Y-596980D01*
X2802080Y-616020D01*
X2794970Y-641430D01*
X2792600Y-670000D01*
X2794970Y-698580D01*
X2802080Y-723980D01*
X2811560Y-743030D01*
X2825780Y-758900D01*
X2844750Y-765250D01*
X2863710Y-758900D01*
X2877940Y-743030D01*
X2887420Y-723980D01*
X2894530Y-698580D01*
X2896900Y-670000D01*
X2894530Y-641430D01*
X2887420Y-616020D01*
X2877940Y-596980D01*
X2863710Y-581100D01*
X2844750Y-574750D01*
G01X3035250Y-771600D02*
X3030510Y-768420D01*
Y-762080D01*
X3035250Y-758900D01*
X3039990Y-762080D01*
Y-768420D01*
X3035250Y-771600D01*
G01X3221010Y-765250D02*
X3225750Y-723980D01*
X3232860Y-689050D01*
X3242340Y-657300D01*
X3254200Y-622380D01*
X3273160Y-574750D01*
X3178340D01*
G01X2969710Y-1085880D02*
X2986300Y-1063650D01*
X3000530Y-1050950D01*
X3019490Y-1044600D01*
X3036090Y-1050950D01*
X3047940Y-1063650D01*
X3057420Y-1082700D01*
X3059790Y-1104930D01*
X3057420Y-1123980D01*
X3047940Y-1143030D01*
X3033710Y-1158900D01*
X3017120Y-1165250D01*
X2998160Y-1158900D01*
X2981560Y-1139860D01*
X2972080Y-1111270D01*
X2969710Y-1079530D01*
X2974450Y-1038250D01*
X2981560Y-1016020D01*
X2993410Y-993800D01*
X3010010Y-977920D01*
X3026600Y-974750D01*
X3043200Y-981100D01*
X3055050Y-996980D01*
G01X3233700Y-1165250D02*
Y-974750D01*
X3145980Y-1111270D01*
X3264520D01*
G01X-250000Y0D02*
X-1520000D01*
G01X450000Y3000000D02*
X-1520000D01*
G01X-250000Y0D02*
X-960000D01*
G01X-1270000Y1154260D02*
Y0D01*
G01X-1332500Y400000D02*
X-1270000Y0D01*
X-1207500Y400000D01*
X-1332500D01*
G01X-1270000Y1645740D02*
Y3000000D01*
G01X80000Y2670000D02*
X-960000D01*
G01X-1207500Y2600000D02*
X-1270000Y3000000D01*
X-1332500Y2600000D01*
X-1207500D01*
G01X-250000Y0D02*
X-570000D01*
G01X-320000Y-85740D02*
Y0D01*
G01X-257500Y-400000D02*
X-320000Y0D01*
X-382500Y-400000D01*
X-257500D01*
G01X-710000Y824260D02*
Y0D01*
G01X-772500Y400000D02*
X-710000Y0D01*
X-647500Y400000D01*
X-772500D01*
G01X-400000Y-432500D02*
X0Y-370000D01*
X-400000Y-307500D01*
Y-432500D01*
G01X80000Y330000D02*
X-570000D01*
G01X-320000Y405740D02*
Y330000D01*
G01X-382500Y730000D02*
X-320000Y330000D01*
X-257500Y730000D01*
X-382500D01*
G01X-710000Y1315740D02*
Y2670000D01*
G01X-647500Y2270000D02*
X-710000Y2670000D01*
X-772500Y2270000D01*
X-647500D01*
G01X0Y-250000D02*
Y-1320000D01*
G01X2793140Y-1070000D02*
X0D01*
G01X400000Y-1007500D02*
X0Y-1070000D01*
X400000Y-1132500D01*
Y-1007500D01*
G01X0Y-250000D02*
Y-620000D01*
G01Y-250000D02*
Y-920000D01*
G01X2432640Y-670000D02*
X0D01*
G01X400000Y-607500D02*
X0Y-670000D01*
X400000Y-732500D01*
Y-607500D01*
G01X-242110Y-370000D02*
X0D01*
G01X330000Y80000D02*
Y-620000D01*
G01X582110Y-370000D02*
X330000D01*
G01X730000Y-307500D02*
X330000Y-370000D01*
X730000Y-432500D01*
Y-307500D01*
G01X3426860Y-1070000D02*
X6400000D01*
G01X3447360Y-670000D02*
X6070000D01*
G01X6000000Y-1132500D02*
X6400000Y-1070000D01*
X6000000Y-1007500D01*
Y-1132500D01*
G01X6070000Y80000D02*
Y-920000D01*
G01X5670000Y-732500D02*
X6070000Y-670000D01*
X5670000Y-607500D01*
Y-732500D01*
G01X6400000Y520000D02*
Y-1320000D01*
G01X6910000Y30000D02*
Y4490000D01*
X19193440D01*
Y30000D01*
X6910000D01*
G01Y665000D02*
X19193440D01*
G01X6910000Y1300000D02*
X19193440D01*
G01X6910000Y1935000D02*
X19193440D01*
G01X7189520Y2728750D02*
Y3046250D01*
X7339140D01*
G01X7284010Y2892800D02*
X7189520D01*
G01X7532050Y3046250D02*
X7626530D01*
G01X7579290D02*
Y2728750D01*
G01X7532050D02*
X7626530D01*
G01X7917870Y2887500D02*
X7996620D01*
Y2792250D01*
X7972990Y2760490D01*
X7945430Y2739330D01*
X7906060Y2728750D01*
X7866690Y2739330D01*
X7839130Y2760490D01*
X7815510Y2792250D01*
X7799760Y2829290D01*
X7791880Y2871620D01*
Y2908670D01*
X7799760Y2940410D01*
X7815510Y2977460D01*
X7839130Y3009210D01*
X7862750Y3030370D01*
X7894250Y3046250D01*
X7921810D01*
X7953300Y3035670D01*
X7976930Y3014500D01*
G01X8122600Y3046250D02*
Y2818710D01*
X8138340Y2771070D01*
X8169840Y2739330D01*
X8209210Y2728750D01*
X8248580Y2739330D01*
X8280080Y2771070D01*
X8295820Y2818710D01*
Y3046250D01*
G01X8445430Y2728750D02*
Y3046250D01*
X8543850D01*
X8575350Y3030370D01*
X8595040Y3009210D01*
X8602910Y2966870D01*
X8595040Y2924540D01*
X8571410Y2898090D01*
X8543850Y2882200D01*
X8445430D01*
G01X8543850D02*
X8602910Y2728750D01*
G01X8917870D02*
X8760390D01*
Y3046250D01*
X8917870D01*
G01X8854880Y2892800D02*
X8760390D01*
G01X6910000Y2570000D02*
X19193440D01*
G01X6910000Y3205000D02*
X19193440D01*
G01X6910000Y3840000D02*
X19193440D01*
G01X8701330Y3363750D02*
X8799760Y3681250D01*
X8898190Y3363750D01*
G01X8862750Y3474870D02*
X8736760D01*
G01X9035980Y3681250D02*
Y3363750D01*
X9193460D01*
G01X9350940Y3681250D02*
Y3363750D01*
X9508420D01*
G01X9972990Y3681250D02*
Y3453710D01*
X9988730Y3406070D01*
X10020230Y3374330D01*
X10059600Y3363750D01*
X10098970Y3374330D01*
X10130470Y3406070D01*
X10146210Y3453710D01*
Y3681250D01*
G01X10284010Y3363750D02*
Y3681250D01*
X10465110Y3363750D01*
Y3681250D01*
G01X10642280D02*
X10736760D01*
G01X10689520D02*
Y3363750D01*
G01X10642280D02*
X10736760D01*
G01X11004480Y3681250D02*
Y3363750D01*
G01X10913930Y3681250D02*
X11095030D01*
G01X11236760Y3406070D02*
X11268260Y3379620D01*
X11303690Y3363750D01*
X11335190D01*
X11366680Y3379620D01*
X11390310Y3406070D01*
X11402120Y3443130D01*
X11394250Y3480160D01*
X11374560Y3511910D01*
X11339120Y3533090D01*
X11291880Y3543670D01*
X11264320Y3564830D01*
X11252510Y3601870D01*
X11260390Y3638920D01*
X11280070Y3665370D01*
X11307630Y3681250D01*
X11335190D01*
X11362750Y3670670D01*
X11386370Y3644210D01*
G01X11850930Y3363750D02*
X11949360Y3681250D01*
X12047790Y3363750D01*
G01X12012350Y3474870D02*
X11886360D01*
G01X12185580Y3363750D02*
Y3681250D01*
X12284000D01*
X12315500Y3665370D01*
X12335190Y3644210D01*
X12343060Y3601870D01*
X12335190Y3559540D01*
X12311560Y3533090D01*
X12284000Y3517200D01*
X12185580D01*
G01X12284000D02*
X12343060Y3363750D01*
G01X12658020D02*
X12500540D01*
Y3681250D01*
X12658020D01*
G01X12595030Y3527800D02*
X12500540D01*
G01X13161960Y3681250D02*
X13256440D01*
G01X13209200D02*
Y3363750D01*
G01X13161960D02*
X13256440D01*
G01X13433610D02*
Y3681250D01*
X13614710Y3363750D01*
Y3681250D01*
G01X14051710Y3363750D02*
Y3681250D01*
X14154080Y3416670D01*
X14256450Y3681250D01*
Y3363750D01*
G01X14421800Y3681250D02*
X14516280D01*
G01X14469040D02*
Y3363750D01*
G01X14421800D02*
X14516280D01*
G01X14705260Y3681250D02*
Y3363750D01*
X14862740D01*
G01X15020220Y3681250D02*
Y3363750D01*
X15177700D01*
G01X15366680Y3681250D02*
X15461160D01*
G01X15413920D02*
Y3363750D01*
G01X15366680D02*
X15461160D01*
G01X15626510D02*
Y3681250D01*
X15728880Y3416670D01*
X15831250Y3681250D01*
Y3363750D01*
G01X16122580D02*
X15965100D01*
Y3681250D01*
X16122580D01*
G01X16059590Y3527800D02*
X15965100D01*
G01X16358800Y3681250D02*
Y3363750D01*
G01X16268250Y3681250D02*
X16449350D01*
G01X16752500Y3363750D02*
X16595020D01*
Y3681250D01*
X16752500D01*
G01X16689510Y3527800D02*
X16595020D01*
G01X16909980Y3363750D02*
Y3681250D01*
X17008400D01*
X17039900Y3665370D01*
X17059590Y3644210D01*
X17067460Y3601870D01*
X17059590Y3559540D01*
X17035960Y3533090D01*
X17008400Y3517200D01*
X16909980D01*
G01X17008400D02*
X17067460Y3363750D01*
G01X17221000Y3406070D02*
X17252500Y3379620D01*
X17287930Y3363750D01*
X17319430D01*
X17350920Y3379620D01*
X17374550Y3406070D01*
X17386360Y3443130D01*
X17378490Y3480160D01*
X17358800Y3511910D01*
X17323360Y3533090D01*
X17276120Y3543670D01*
X17248560Y3564830D01*
X17236750Y3601870D01*
X17244630Y3638920D01*
X17264310Y3665370D01*
X17291870Y3681250D01*
X17319430D01*
X17346990Y3670670D01*
X17370610Y3644210D01*
G01X9193460Y3205000D02*
Y30000D01*
G01X9028110Y4013750D02*
Y4331250D01*
X9106840D01*
X9138340Y4315370D01*
X9161960Y4294210D01*
X9181650Y4262460D01*
X9197400Y4225410D01*
X9201330Y4172500D01*
X9197400Y4119580D01*
X9181650Y4082540D01*
X9161960Y4050780D01*
X9138340Y4029620D01*
X9106840Y4013750D01*
X9028110D01*
G01X9350940D02*
Y4331250D01*
X9449360D01*
X9480860Y4315370D01*
X9500550Y4294210D01*
X9508420Y4251870D01*
X9500550Y4209540D01*
X9476920Y4183090D01*
X9449360Y4167200D01*
X9350940D01*
G01X9449360D02*
X9508420Y4013750D01*
G01X9697400Y4331250D02*
X9791880D01*
G01X9744640D02*
Y4013750D01*
G01X9697400D02*
X9791880D01*
G01X9980860Y4331250D02*
Y4013750D01*
X10138340D01*
G01X10295820Y4331250D02*
Y4013750D01*
X10453300D01*
G01X11091090Y4304790D02*
X11067470Y4320670D01*
X11039920Y4331250D01*
X11008420D01*
X10972980Y4315370D01*
X10945430Y4288920D01*
X10925740Y4257160D01*
X10909990Y4204250D01*
X10906050Y4156620D01*
X10913930Y4109000D01*
X10925740Y4077250D01*
X10949360Y4045490D01*
X10976920Y4024330D01*
X11004480Y4013750D01*
X11032040D01*
X11059600Y4024330D01*
X11083220Y4040200D01*
X11102910Y4061360D01*
G01X11236760Y4013750D02*
Y4331250D01*
G01X11402120D02*
Y4013750D01*
G01Y4172500D02*
X11236760D01*
G01X11535970Y4013750D02*
X11634400Y4331250D01*
X11732830Y4013750D01*
G01X11697390Y4124870D02*
X11571400D01*
G01X11870620Y4013750D02*
Y4331250D01*
X11969040D01*
X12000540Y4315370D01*
X12020230Y4294210D01*
X12028100Y4251870D01*
X12020230Y4209540D01*
X11996600Y4183090D01*
X11969040Y4167200D01*
X11870620D01*
G01X11969040D02*
X12028100Y4013750D01*
G01X12264320Y4331250D02*
Y4013750D01*
G01X12173770Y4331250D02*
X12354870D01*
G01X12579280Y4003170D02*
X12571400Y4008460D01*
Y4019040D01*
X12579280Y4024330D01*
X12587160Y4019040D01*
Y4008460D01*
X12579280Y4003170D01*
G01Y4146030D02*
X12571400Y4151330D01*
Y4161910D01*
X12579280Y4167200D01*
X12587160Y4161910D01*
Y4151330D01*
X12579280Y4146030D01*
G01X13209200Y4331250D02*
Y4013750D01*
G01X13118650Y4331250D02*
X13299750D01*
G01X13524160Y4013750D02*
X13492660Y4019040D01*
X13465110Y4040200D01*
X13441480Y4071960D01*
X13425730Y4109000D01*
X13417860Y4151330D01*
Y4193670D01*
X13425730Y4236000D01*
X13441480Y4273040D01*
X13465110Y4304790D01*
X13492660Y4325960D01*
X13524160Y4331250D01*
X13555650Y4325960D01*
X13583210Y4304790D01*
X13606840Y4273040D01*
X13622590Y4236000D01*
X13630460Y4193670D01*
Y4151330D01*
X13622590Y4109000D01*
X13606840Y4071960D01*
X13583210Y4040200D01*
X13555650Y4019040D01*
X13524160Y4013750D01*
G01X13760380D02*
Y4331250D01*
X13854870D01*
X13886360Y4315370D01*
X13909990Y4278330D01*
X13917860Y4236000D01*
X13909990Y4193670D01*
X13890300Y4161910D01*
X13854870Y4146030D01*
X13760380D01*
G01X14469040Y4331250D02*
Y4013750D01*
G01X14413920Y4225410D02*
X14524160D01*
G01X14784000Y4013750D02*
X14760380Y4019040D01*
X14736760Y4040200D01*
X14721000Y4077250D01*
X14713130Y4119580D01*
X14721000Y4161910D01*
X14736760Y4198960D01*
X14760380Y4220120D01*
X14784000Y4225410D01*
X14807620Y4220120D01*
X14831240Y4198960D01*
X14846990Y4161910D01*
X14850930Y4119580D01*
X14846990Y4077250D01*
X14831240Y4040200D01*
X14807620Y4019040D01*
X14784000Y4013750D01*
G01X15445410Y4183090D02*
X15461160Y4198960D01*
X15472970Y4225410D01*
X15480850Y4262460D01*
X15472970Y4294210D01*
X15457230Y4315370D01*
X15429670Y4331250D01*
X15323370D01*
Y4013750D01*
X15453290D01*
X15480850Y4034910D01*
X15496600Y4066670D01*
X15504470Y4103710D01*
X15496600Y4140740D01*
X15472970Y4172500D01*
X15445410Y4183090D01*
X15323370D01*
G01X15728880Y4013750D02*
X15697380Y4019040D01*
X15669830Y4040200D01*
X15646200Y4071960D01*
X15630450Y4109000D01*
X15622580Y4151330D01*
Y4193670D01*
X15630450Y4236000D01*
X15646200Y4273040D01*
X15669830Y4304790D01*
X15697380Y4325960D01*
X15728880Y4331250D01*
X15760370Y4325960D01*
X15787930Y4304790D01*
X15811560Y4273040D01*
X15827310Y4236000D01*
X15835180Y4193670D01*
Y4151330D01*
X15827310Y4109000D01*
X15811560Y4071960D01*
X15787930Y4040200D01*
X15760370Y4019040D01*
X15728880Y4013750D01*
G01X16043840Y4331250D02*
Y4013750D01*
G01X15953290Y4331250D02*
X16134390D01*
G01X16358800D02*
Y4013750D01*
G01X16268250Y4331250D02*
X16449350D01*
G01X16673760Y4013750D02*
X16642260Y4019040D01*
X16614710Y4040200D01*
X16591080Y4071960D01*
X16575330Y4109000D01*
X16567460Y4151330D01*
Y4193670D01*
X16575330Y4236000D01*
X16591080Y4273040D01*
X16614710Y4304790D01*
X16642260Y4325960D01*
X16673760Y4331250D01*
X16705250Y4325960D01*
X16732810Y4304790D01*
X16756440Y4273040D01*
X16772190Y4236000D01*
X16780060Y4193670D01*
Y4151330D01*
X16772190Y4109000D01*
X16756440Y4071960D01*
X16732810Y4040200D01*
X16705250Y4019040D01*
X16673760Y4013750D01*
G01X16886350D02*
Y4331250D01*
X16988720Y4066670D01*
X17091090Y4331250D01*
Y4013750D01*
G01X10721020Y252250D02*
X10744630Y215200D01*
X10776130Y194040D01*
X10811570Y188750D01*
X10843070Y194040D01*
X10874560Y220490D01*
X10894240Y252250D01*
X10898180Y284000D01*
X10890310Y321030D01*
X10862750Y347500D01*
X10835190Y358090D01*
X10799750D01*
G01X10835190D02*
X10858810Y373960D01*
X10878500Y400410D01*
X10886370Y432160D01*
X10878500Y463920D01*
X10858810Y490370D01*
X10823380Y506250D01*
X10787950Y500960D01*
X10752510Y479790D01*
G01X11122590Y178170D02*
X11114710Y183460D01*
Y194040D01*
X11122590Y199330D01*
X11130470Y194040D01*
Y183460D01*
X11122590Y178170D01*
G01X11484790Y188750D02*
Y506250D01*
X11339120Y278710D01*
X11535980D01*
G01X11752510Y506250D02*
X11721010Y495670D01*
X11697390Y469210D01*
X11681640Y437460D01*
X11669830Y395120D01*
X11665900Y347500D01*
X11669830Y299870D01*
X11681640Y257540D01*
X11697390Y225780D01*
X11721010Y199330D01*
X11752510Y188750D01*
X11784000Y199330D01*
X11807630Y225780D01*
X11823380Y257540D01*
X11835190Y299870D01*
X11839120Y347500D01*
X11835190Y395120D01*
X11823380Y437460D01*
X11807630Y469210D01*
X11784000Y495670D01*
X11752510Y506250D01*
G01X11980860Y252250D02*
X12004470Y215200D01*
X12035970Y194040D01*
X12071410Y188750D01*
X12102910Y194040D01*
X12134400Y220490D01*
X12154080Y252250D01*
X12158020Y284000D01*
X12150150Y321030D01*
X12122590Y347500D01*
X12095030Y358090D01*
X12059590D01*
G01X12095030D02*
X12118650Y373960D01*
X12138340Y400410D01*
X12146210Y432160D01*
X12138340Y463920D01*
X12118650Y490370D01*
X12083220Y506250D01*
X12047790Y500960D01*
X12012350Y479790D01*
G01X12307620Y321030D02*
X12335190Y358090D01*
X12358810Y379250D01*
X12390310Y389830D01*
X12417870Y379250D01*
X12437550Y358090D01*
X12453300Y326330D01*
X12457240Y289290D01*
X12453300Y257540D01*
X12437550Y225780D01*
X12413920Y199330D01*
X12386370Y188750D01*
X12354870Y199330D01*
X12327310Y231070D01*
X12311560Y278710D01*
X12307620Y331620D01*
X12315500Y400410D01*
X12327310Y437460D01*
X12346990Y474500D01*
X12374550Y500960D01*
X12402110Y506250D01*
X12429670Y495670D01*
X12449360Y469210D01*
G01X10965110Y823750D02*
Y1141250D01*
X10917870Y1077750D01*
G01Y823750D02*
X11012350D01*
G01X11280070Y813170D02*
X11272190Y818460D01*
Y829040D01*
X11280070Y834330D01*
X11287950Y829040D01*
Y818460D01*
X11280070Y813170D01*
G01X11508420Y871360D02*
X11532030Y844910D01*
X11559590Y829040D01*
X11595030Y823750D01*
X11630470Y834330D01*
X11658020Y855490D01*
X11677710Y892540D01*
X11681640Y934870D01*
X11673770Y977200D01*
X11654080Y1003670D01*
X11626520Y1024830D01*
X11598970Y1030120D01*
X11571410Y1024830D01*
X11535980Y1003670D01*
X11547790Y1141250D01*
X11654080D01*
G01X11835180Y1088330D02*
X11858810Y1120080D01*
X11886370Y1135960D01*
X11917870Y1141250D01*
X11957230Y1130670D01*
X11984800Y1104210D01*
X11992670Y1072460D01*
X11988730Y1040700D01*
X11972980Y1014250D01*
X11894240Y961330D01*
X11858810Y924290D01*
X11835180Y871360D01*
X11827310Y823750D01*
X11992670D01*
G01X12272190D02*
Y1141250D01*
X12126520Y913710D01*
X12323380D01*
G01X10965110Y1776250D02*
X10933610Y1765670D01*
X10909990Y1739210D01*
X10894240Y1707460D01*
X10882430Y1665120D01*
X10878500Y1617500D01*
X10882430Y1569870D01*
X10894240Y1527540D01*
X10909990Y1495780D01*
X10933610Y1469330D01*
X10965110Y1458750D01*
X10996600Y1469330D01*
X11020230Y1495780D01*
X11035980Y1527540D01*
X11047790Y1569870D01*
X11051720Y1617500D01*
X11047790Y1665120D01*
X11035980Y1707460D01*
X11020230Y1739210D01*
X10996600Y1765670D01*
X10965110Y1776250D01*
G01X11280070Y1448170D02*
X11272190Y1453460D01*
Y1464040D01*
X11280070Y1469330D01*
X11287950Y1464040D01*
Y1453460D01*
X11280070Y1448170D01*
G01X11595030Y1458750D02*
X11622590Y1464040D01*
X11654080Y1479910D01*
X11673770Y1506360D01*
X11681640Y1543420D01*
X11673770Y1580450D01*
X11650150Y1612200D01*
X11614710Y1628090D01*
X11575350D01*
X11551720Y1638670D01*
X11532030Y1665120D01*
X11524160Y1702160D01*
X11535980Y1739210D01*
X11563530Y1765670D01*
X11595030Y1776250D01*
X11626520Y1765670D01*
X11654080Y1739210D01*
X11665900Y1702160D01*
X11658020Y1665120D01*
X11638340Y1638670D01*
X11614710Y1628090D01*
X11575350D01*
X11539910Y1612200D01*
X11516290Y1580450D01*
X11508420Y1543420D01*
X11516290Y1506360D01*
X11535980Y1479910D01*
X11567470Y1464040D01*
X11595030Y1458750D01*
G01X11909990D02*
X11937550Y1464040D01*
X11969040Y1479910D01*
X11988730Y1506360D01*
X11996600Y1543420D01*
X11988730Y1580450D01*
X11965110Y1612200D01*
X11929670Y1628090D01*
X11890310D01*
X11866680Y1638670D01*
X11846990Y1665120D01*
X11839120Y1702160D01*
X11850940Y1739210D01*
X11878490Y1765670D01*
X11909990Y1776250D01*
X11941480Y1765670D01*
X11969040Y1739210D01*
X11980860Y1702160D01*
X11972980Y1665120D01*
X11953300Y1638670D01*
X11929670Y1628090D01*
X11890310D01*
X11854870Y1612200D01*
X11831250Y1580450D01*
X11823380Y1543420D01*
X11831250Y1506360D01*
X11850940Y1479910D01*
X11882430Y1464040D01*
X11909990Y1458750D01*
G01X12158020Y1495780D02*
X12185580Y1469330D01*
X12217070Y1458750D01*
X12248570Y1469330D01*
X12276130Y1501070D01*
X12295820Y1548710D01*
X12303690Y1596330D01*
Y1654540D01*
X12295820Y1702160D01*
X12276130Y1744500D01*
X12252510Y1765670D01*
X12224950Y1776250D01*
X12193450Y1765670D01*
X12169830Y1744500D01*
X12154080Y1712750D01*
X12146210Y1670410D01*
X12154080Y1633380D01*
X12173770Y1596330D01*
X12197390Y1575160D01*
X12224950Y1569870D01*
X12256440Y1580450D01*
X12280070Y1606910D01*
X12303690Y1654540D01*
G01X10807630Y2411250D02*
X10776130Y2400670D01*
X10752510Y2374210D01*
X10736760Y2342460D01*
X10724950Y2300120D01*
X10721020Y2252500D01*
X10724950Y2204870D01*
X10736760Y2162540D01*
X10752510Y2130780D01*
X10776130Y2104330D01*
X10807630Y2093750D01*
X10839120Y2104330D01*
X10862750Y2130780D01*
X10878500Y2162540D01*
X10890310Y2204870D01*
X10894240Y2252500D01*
X10890310Y2300120D01*
X10878500Y2342460D01*
X10862750Y2374210D01*
X10839120Y2400670D01*
X10807630Y2411250D01*
G01X11122590Y2083170D02*
X11114710Y2088460D01*
Y2099040D01*
X11122590Y2104330D01*
X11130470Y2099040D01*
Y2088460D01*
X11122590Y2083170D01*
G01X11350940Y2157250D02*
X11374550Y2120200D01*
X11406050Y2099040D01*
X11441490Y2093750D01*
X11472990Y2099040D01*
X11504480Y2125490D01*
X11524160Y2157250D01*
X11528100Y2189000D01*
X11520230Y2226030D01*
X11492670Y2252500D01*
X11465110Y2263090D01*
X11429670D01*
G01X11465110D02*
X11488730Y2278960D01*
X11508420Y2305410D01*
X11516290Y2337160D01*
X11508420Y2368920D01*
X11488730Y2395370D01*
X11453300Y2411250D01*
X11417870Y2405960D01*
X11382430Y2384790D01*
G01X11752510Y2411250D02*
X11721010Y2400670D01*
X11697390Y2374210D01*
X11681640Y2342460D01*
X11669830Y2300120D01*
X11665900Y2252500D01*
X11669830Y2204870D01*
X11681640Y2162540D01*
X11697390Y2130780D01*
X11721010Y2104330D01*
X11752510Y2093750D01*
X11784000Y2104330D01*
X11807630Y2130780D01*
X11823380Y2162540D01*
X11835190Y2204870D01*
X11839120Y2252500D01*
X11835190Y2300120D01*
X11823380Y2342460D01*
X11807630Y2374210D01*
X11784000Y2400670D01*
X11752510Y2411250D01*
G01X12114710Y2093750D02*
Y2411250D01*
X11969040Y2183710D01*
X12165900D01*
G01X12382430Y2093750D02*
X12409990Y2099040D01*
X12441480Y2114910D01*
X12461170Y2141360D01*
X12469040Y2178420D01*
X12461170Y2215450D01*
X12437550Y2247200D01*
X12402110Y2263090D01*
X12362750D01*
X12339120Y2273670D01*
X12319430Y2300120D01*
X12311560Y2337160D01*
X12323380Y2374210D01*
X12350930Y2400670D01*
X12382430Y2411250D01*
X12413920Y2400670D01*
X12441480Y2374210D01*
X12453300Y2337160D01*
X12445420Y2300120D01*
X12425740Y2273670D01*
X12402110Y2263090D01*
X12362750D01*
X12327310Y2247200D01*
X12303690Y2215450D01*
X12295820Y2178420D01*
X12303690Y2141360D01*
X12323380Y2114910D01*
X12354870Y2099040D01*
X12382430Y2093750D01*
G01X11039910Y2771070D02*
X11071410Y2744620D01*
X11106840Y2728750D01*
X11138340D01*
X11169830Y2744620D01*
X11193460Y2771070D01*
X11205270Y2808130D01*
X11197400Y2845160D01*
X11177710Y2876910D01*
X11142270Y2898090D01*
X11095030Y2908670D01*
X11067470Y2929830D01*
X11055660Y2966870D01*
X11063540Y3003920D01*
X11083220Y3030370D01*
X11110780Y3046250D01*
X11138340D01*
X11165900Y3035670D01*
X11189520Y3009210D01*
G01X11390310Y3046250D02*
X11484790D01*
G01X11437550D02*
Y2728750D01*
G01X11390310D02*
X11484790D01*
G01X11677700Y3046250D02*
X11827320D01*
X11677700Y2728750D01*
X11827320D01*
G01X12146210D02*
X11988730D01*
Y3046250D01*
X12146210D01*
G01X12083220Y2892800D02*
X11988730D01*
G01X13996600Y3205000D02*
Y30000D01*
G01X14744630Y188750D02*
Y506250D01*
X14839120D01*
X14870610Y490370D01*
X14894240Y453330D01*
X14902110Y411000D01*
X14894240Y368670D01*
X14874550Y336910D01*
X14839120Y321030D01*
X14744630D01*
G01X15059590Y506250D02*
Y188750D01*
X15217070D01*
G01X15354860D02*
X15453290Y506250D01*
X15551720Y188750D01*
G01X15516280Y299870D02*
X15390290D01*
G01X15768250Y506250D02*
Y188750D01*
G01X15677700Y506250D02*
X15858800D01*
G01X16161950Y188750D02*
X16004470D01*
Y506250D01*
X16161950D01*
G01X16098960Y352800D02*
X16004470D01*
G01X16311560Y188750D02*
Y506250D01*
X16390290D01*
X16421790Y490370D01*
X16445410Y469210D01*
X16465100Y437460D01*
X16480850Y400410D01*
X16484780Y347500D01*
X16480850Y294580D01*
X16465100Y257540D01*
X16445410Y225780D01*
X16421790Y204620D01*
X16390290Y188750D01*
X16311560D01*
G01X14744630Y823750D02*
Y1141250D01*
X14839120D01*
X14870610Y1125370D01*
X14894240Y1088330D01*
X14902110Y1046000D01*
X14894240Y1003670D01*
X14874550Y971910D01*
X14839120Y956030D01*
X14744630D01*
G01X15059590Y1141250D02*
Y823750D01*
X15217070D01*
G01X15354860D02*
X15453290Y1141250D01*
X15551720Y823750D01*
G01X15516280Y934870D02*
X15390290D01*
G01X15768250Y1141250D02*
Y823750D01*
G01X15677700Y1141250D02*
X15858800D01*
G01X16161950Y823750D02*
X16004470D01*
Y1141250D01*
X16161950D01*
G01X16098960Y987800D02*
X16004470D01*
G01X16311560Y823750D02*
Y1141250D01*
X16390290D01*
X16421790Y1125370D01*
X16445410Y1104210D01*
X16465100Y1072460D01*
X16480850Y1035410D01*
X16484780Y982500D01*
X16480850Y929580D01*
X16465100Y892540D01*
X16445410Y860780D01*
X16421790Y839620D01*
X16390290Y823750D01*
X16311560D01*
G01X14744630Y1458750D02*
Y1776250D01*
X14839120D01*
X14870610Y1760370D01*
X14894240Y1723330D01*
X14902110Y1681000D01*
X14894240Y1638670D01*
X14874550Y1606910D01*
X14839120Y1591030D01*
X14744630D01*
G01X15059590Y1776250D02*
Y1458750D01*
X15217070D01*
G01X15354860D02*
X15453290Y1776250D01*
X15551720Y1458750D01*
G01X15516280Y1569870D02*
X15390290D01*
G01X15768250Y1776250D02*
Y1458750D01*
G01X15677700Y1776250D02*
X15858800D01*
G01X16161950Y1458750D02*
X16004470D01*
Y1776250D01*
X16161950D01*
G01X16098960Y1622800D02*
X16004470D01*
G01X16311560Y1458750D02*
Y1776250D01*
X16390290D01*
X16421790Y1760370D01*
X16445410Y1739210D01*
X16465100Y1707460D01*
X16480850Y1670410D01*
X16484780Y1617500D01*
X16480850Y1564580D01*
X16465100Y1527540D01*
X16445410Y1495780D01*
X16421790Y1474620D01*
X16390290Y1458750D01*
X16311560D01*
G01X14744630Y2093750D02*
Y2411250D01*
X14839120D01*
X14870610Y2395370D01*
X14894240Y2358330D01*
X14902110Y2316000D01*
X14894240Y2273670D01*
X14874550Y2241910D01*
X14839120Y2226030D01*
X14744630D01*
G01X15059590Y2411250D02*
Y2093750D01*
X15217070D01*
G01X15354860D02*
X15453290Y2411250D01*
X15551720Y2093750D01*
G01X15516280Y2204870D02*
X15390290D01*
G01X15768250Y2411250D02*
Y2093750D01*
G01X15677700Y2411250D02*
X15858800D01*
G01X16161950Y2093750D02*
X16004470D01*
Y2411250D01*
X16161950D01*
G01X16098960Y2257800D02*
X16004470D01*
G01X16311560Y2093750D02*
Y2411250D01*
X16390290D01*
X16421790Y2395370D01*
X16445410Y2374210D01*
X16465100Y2342460D01*
X16480850Y2305410D01*
X16484780Y2252500D01*
X16480850Y2199580D01*
X16465100Y2162540D01*
X16445410Y2130780D01*
X16421790Y2109620D01*
X16390290Y2093750D01*
X16311560D01*
G01X14744630Y2728750D02*
Y3046250D01*
X14839120D01*
X14870610Y3030370D01*
X14894240Y2993330D01*
X14902110Y2951000D01*
X14894240Y2908670D01*
X14874550Y2876910D01*
X14839120Y2861030D01*
X14744630D01*
G01X15059590Y3046250D02*
Y2728750D01*
X15217070D01*
G01X15354860D02*
X15453290Y3046250D01*
X15551720Y2728750D01*
G01X15516280Y2839870D02*
X15390290D01*
G01X15768250Y3046250D02*
Y2728750D01*
G01X15677700Y3046250D02*
X15858800D01*
G01X16161950Y2728750D02*
X16004470D01*
Y3046250D01*
X16161950D01*
G01X16098960Y2892800D02*
X16004470D01*
G01X16311560Y2728750D02*
Y3046250D01*
X16390290D01*
X16421790Y3030370D01*
X16445410Y3009210D01*
X16465100Y2977460D01*
X16480850Y2940410D01*
X16484780Y2887500D01*
X16480850Y2834580D01*
X16465100Y2797540D01*
X16445410Y2765780D01*
X16421790Y2744620D01*
X16390290Y2728750D01*
X16311560D01*
G01X17224940Y3205000D02*
Y30000D01*
G01X17894230Y2093750D02*
Y2411250D01*
X17846990Y2347750D01*
G01Y2093750D02*
X17941470D01*
G01X18142260Y2130780D02*
X18169820Y2104330D01*
X18201310Y2093750D01*
X18232810Y2104330D01*
X18260370Y2136070D01*
X18280060Y2183710D01*
X18287930Y2231330D01*
Y2289540D01*
X18280060Y2337160D01*
X18260370Y2379500D01*
X18236750Y2400670D01*
X18209190Y2411250D01*
X18177690Y2400670D01*
X18154070Y2379500D01*
X18138320Y2347750D01*
X18130450Y2305410D01*
X18138320Y2268380D01*
X18158010Y2231330D01*
X18181630Y2210160D01*
X18209190Y2204870D01*
X18240680Y2215450D01*
X18264310Y2241910D01*
X18287930Y2289540D01*
G01X18571390Y2093750D02*
Y2411250D01*
X18425720Y2183710D01*
X18622580D01*
G01X17894230Y2728750D02*
X17862730Y2734040D01*
X17835180Y2755200D01*
X17811550Y2786960D01*
X17795800Y2824000D01*
X17787930Y2866330D01*
Y2908670D01*
X17795800Y2951000D01*
X17811550Y2988040D01*
X17835180Y3019790D01*
X17862730Y3040960D01*
X17894230Y3046250D01*
X17925720Y3040960D01*
X17953280Y3019790D01*
X17976910Y2988040D01*
X17992660Y2951000D01*
X18000530Y2908670D01*
Y2866330D01*
X17992660Y2824000D01*
X17976910Y2786960D01*
X17953280Y2755200D01*
X17925720Y2734040D01*
X17894230Y2728750D01*
G01X17925720Y2813420D02*
X17972970Y2728750D01*
G01X18209190Y3046250D02*
Y2728750D01*
G01X18118640Y3046250D02*
X18299740D01*
G01X18524150Y2728750D02*
Y2871620D01*
X18445410Y3046250D01*
G01X18602890D02*
X18524150Y2871620D01*
G01X18256430Y188750D02*
Y506250D01*
X18110760Y278710D01*
X18307620D01*
G01X18256430Y823750D02*
Y1141250D01*
X18110760Y913710D01*
X18307620D01*
G01X18201310Y1458750D02*
X18209190Y1527540D01*
X18221000Y1585740D01*
X18236750Y1638670D01*
X18256430Y1696870D01*
X18287930Y1776250D01*
X18130450D01*
M02*
