G04 ================== begin FILE IDENTIFICATION RECORD ==================*
G04 Layout Name:  SCA830D07_V10A.brd*
G04 Film Name:    Drill_Legend*
G04 File Format:  Gerber RS274X*
G04 File Origin:  Cadence Allegro 16.6-2015-S095*
G04 Origin Date:  Tue Oct 31 11:40:28 2017*
G04 *
G04 Layer:  MANUFACTURING/NCDRILL_LEGEND*
G04 Layer:  MANUFACTURING/NCDRILL_FIGURE*
G04 Layer:  BOARD GEOMETRY/DIMENSION*
G04 Layer:  MANUFACTURING/NCLEGEND-1-2*
G04 Layer:  BOARD GEOMETRY/OUTLINE*
G04 *
G04 Offset:    (0.0000 0.0000)*
G04 Mirror:    No*
G04 Mode:      Positive*
G04 Rotation:  0*
G04 FullContactRelief:  No*
G04 UndefLineWidth:     0.1524*
G04 ================== end FILE IDENTIFICATION RECORD ====================*
%FSLAX55Y55*MOMM*%
%IR0*IPPOS*OFA0.00000B0.00000*MIA0B0*SFA1.00000B1.00000*%
%AMMACRO11*
1,1,.1524,.25,.25*
20,1,.1524,.25,.25,.25,-.25,0.0*
1,1,.1524,.25,-.25*
20,1,.1524,.25,-.25,-.25,-.25,0.0*
1,1,.1524,-.25,-.25*
20,1,.1524,-.25,-.25,-.25,.25,0.0*
1,1,.1524,-.25,.25*
20,1,.1524,-.25,.25,.25,.25,0.0*
1,1,.1524,.25,.25*
%
%ADD11MACRO11*%
%AMMACRO10*
1,1,.1524,.1524,0.0*
20,1,.1524,.1524,0.0,-.1524,0.0,0.0*
1,1,.1524,-.1524,0.0*
1,1,.1524,0.0,.1524*
20,1,.1524,0.0,.1524,0.0,-.1524,0.0*
1,1,.1524,0.0,-.1524*
%
%ADD10MACRO10*%
%ADD12C,.1524*%
G75*
%LPD*%
G75*
G54D10*
X80000Y930000D03*
X220000D03*
Y1710000D03*
X80000D03*
X670000Y930000D03*
X380000D03*
X520000D03*
X290000Y1070000D03*
Y1170000D03*
X730000Y1070000D03*
Y1170000D03*
X380000Y1430000D03*
Y1570000D03*
X670000D03*
X530000D03*
X670000Y1710000D03*
X520000D03*
X380000D03*
X1200000Y1530000D03*
Y1340000D03*
X810000Y1710000D03*
X1640000Y1170000D03*
X1500000D03*
X1740000Y890000D03*
X1600000D03*
X3261730Y982500D03*
G54D11*
X1260000Y500000D03*
X1120000D03*
X980000D03*
X1680000D03*
X1540000D03*
X1400000D03*
X3261730Y347500D03*
G54D12*
G01X-1065250Y864750D02*
Y1055250D01*
X-1093700Y1017150D01*
G01Y864750D02*
X-1036810D01*
G01X-874750D02*
X-858160Y867920D01*
X-839190Y877450D01*
X-827340Y893320D01*
X-822600Y915550D01*
X-827340Y937770D01*
X-841560Y956820D01*
X-862900Y966350D01*
X-886600D01*
X-900830Y972700D01*
X-912680Y988570D01*
X-917420Y1010800D01*
X-910310Y1033020D01*
X-893720Y1048900D01*
X-874750Y1055250D01*
X-855790Y1048900D01*
X-839190Y1033020D01*
X-832080Y1010800D01*
X-836820Y988570D01*
X-848670Y972700D01*
X-862900Y966350D01*
X-886600D01*
X-907940Y956820D01*
X-922160Y937770D01*
X-926900Y915550D01*
X-922160Y893320D01*
X-910310Y877450D01*
X-891340Y867920D01*
X-874750Y864750D01*
G01X-302150Y92850D02*
X-287930Y70620D01*
X-268970Y57920D01*
X-247630Y54750D01*
X-228660Y57920D01*
X-209700Y73800D01*
X-197850Y92850D01*
X-195480Y111900D01*
X-200220Y134120D01*
X-216810Y150000D01*
X-233410Y156350D01*
X-254740D01*
G01X-233410D02*
X-219180Y165870D01*
X-207330Y181750D01*
X-202590Y200800D01*
X-207330Y219850D01*
X-219180Y235720D01*
X-240520Y245250D01*
X-261850Y242080D01*
X-283190Y229370D01*
G01X-665250Y724750D02*
Y915250D01*
X-693700Y877150D01*
G01Y724750D02*
X-636810D01*
G01X-526900Y753320D02*
X-512680Y737450D01*
X-496090Y727920D01*
X-474750Y724750D01*
X-453410Y731100D01*
X-436820Y743800D01*
X-424970Y766020D01*
X-422600Y791420D01*
X-427340Y816820D01*
X-439190Y832700D01*
X-455790Y845400D01*
X-472380Y848570D01*
X-488970Y845400D01*
X-510310Y832700D01*
X-503200Y915250D01*
X-439190D01*
G01X100000Y0D02*
X1700000D01*
G03X1800000Y100000I0J100000D01*
G01Y1700000D01*
G03X1700000Y1800000I-100000J0D01*
G01X100000D01*
G03X0Y1700000I0J-100000D01*
G01Y100000D01*
G03X100000Y0I100000J0D01*
G01X87850Y-327150D02*
X102070Y-349380D01*
X121030Y-362080D01*
X142370Y-365250D01*
X161340Y-362080D01*
X180300Y-346200D01*
X192150Y-327150D01*
X194520Y-308100D01*
X189780Y-285880D01*
X173190Y-270000D01*
X156590Y-263650D01*
X135260D01*
G01X156590D02*
X170820Y-254130D01*
X182670Y-238250D01*
X187410Y-219200D01*
X182670Y-200150D01*
X170820Y-184280D01*
X149480Y-174750D01*
X128150Y-177920D01*
X106810Y-190630D01*
G01X460000Y300000D02*
G03I-160000J0D01*
G01X704750Y-625250D02*
Y-434750D01*
X676300Y-472850D01*
G01Y-625250D02*
X733190D01*
G01X843100Y-596680D02*
X857320Y-612550D01*
X873910Y-622080D01*
X895250Y-625250D01*
X916590Y-618900D01*
X933180Y-606200D01*
X945030Y-583980D01*
X947400Y-558580D01*
X942660Y-533180D01*
X930810Y-517300D01*
X914210Y-504600D01*
X897620Y-501430D01*
X881030Y-504600D01*
X859690Y-517300D01*
X866800Y-434750D01*
X930810D01*
G01X794750Y-885250D02*
Y-694750D01*
X766300Y-732850D01*
G01Y-885250D02*
X823190D01*
G01X985250D02*
X1001840Y-882080D01*
X1020810Y-872550D01*
X1032660Y-856680D01*
X1037400Y-834450D01*
X1032660Y-812230D01*
X1018440Y-793180D01*
X997100Y-783650D01*
X973400D01*
X959170Y-777300D01*
X947320Y-761430D01*
X942580Y-739200D01*
X949690Y-716980D01*
X966280Y-701100D01*
X985250Y-694750D01*
X1004210Y-701100D01*
X1020810Y-716980D01*
X1027920Y-739200D01*
X1023180Y-761430D01*
X1011330Y-777300D01*
X997100Y-783650D01*
X973400D01*
X952060Y-793180D01*
X937840Y-812230D01*
X933100Y-834450D01*
X937840Y-856680D01*
X949690Y-872550D01*
X968660Y-882080D01*
X985250Y-885250D01*
G01X1660000Y1500000D02*
G03I-160000J0D01*
G01X-250000Y0D02*
X-1220000D01*
G01X-970000Y714260D02*
Y0D01*
G01X-1032500Y400000D02*
X-970000Y0D01*
X-907500Y400000D01*
X-1032500D01*
G01X-970000Y1205740D02*
Y1800000D01*
G01X-907500Y1400000D02*
X-970000Y1800000D01*
X-1032500Y1400000D01*
X-907500D01*
G01X-110000Y1800000D02*
X-1220000D01*
G01X-250000Y0D02*
X-500000D01*
G01X-187500Y-400000D02*
X-250000Y0D01*
X-312500Y-400000D01*
X-187500D01*
G01X-250000Y0D02*
X-820000D01*
G01X-570000Y574260D02*
Y0D01*
G01X-632500Y400000D02*
X-570000Y0D01*
X-507500Y400000D01*
X-632500D01*
G01X-400000Y-332500D02*
X0Y-270000D01*
X-400000Y-207500D01*
Y-332500D01*
G01X50000Y300000D02*
X-500000D01*
G01X-312500Y700000D02*
X-250000Y300000D01*
X-187500Y700000D01*
X-312500D01*
G01X-570000Y1065740D02*
Y1500000D01*
G01X-507500Y1100000D02*
X-570000Y1500000D01*
X-632500Y1100000D01*
X-507500D01*
G01X1250000Y1500000D02*
X-820000D01*
G01X0Y-250000D02*
Y-1040000D01*
G01Y-250000D02*
Y-520000D01*
G01Y-250000D02*
Y-780000D01*
G01X483140Y-530000D02*
X0D01*
G01X400000Y-467500D02*
X0Y-530000D01*
X400000Y-592500D01*
Y-467500D01*
G01X573140Y-790000D02*
X0D01*
G01X400000Y-727500D02*
X0Y-790000D01*
X400000Y-852500D01*
Y-727500D01*
G01X-250000Y-95740D02*
Y0D01*
G01X-81610Y-270000D02*
X0D01*
G01X-250000Y395740D02*
Y300000D01*
G01X300000Y50000D02*
Y-520000D01*
G01X361610Y-270000D02*
X300000D01*
G01X700000Y-207500D02*
X300000Y-270000D01*
X700000Y-332500D01*
Y-207500D01*
G01X1116860Y-530000D02*
X1500000D01*
G01X1100000Y-592500D02*
X1500000Y-530000D01*
X1100000Y-467500D01*
Y-592500D01*
G01X1206860Y-790000D02*
X1800000D01*
G01Y-110000D02*
Y-1040000D01*
G01X1500000Y1250000D02*
Y-780000D01*
G01X1400000Y-852500D02*
X1800000Y-790000D01*
X1400000Y-727500D01*
Y-852500D01*
G01X2120000Y30000D02*
Y3220000D01*
X14403440D01*
Y30000D01*
X2120000D01*
G01Y665000D02*
X14403440D01*
G01X2399520Y1458750D02*
Y1776250D01*
X2549140D01*
G01X2494010Y1622800D02*
X2399520D01*
G01X2742050Y1776250D02*
X2836530D01*
G01X2789290D02*
Y1458750D01*
G01X2742050D02*
X2836530D01*
G01X3127870Y1617500D02*
X3206620D01*
Y1522250D01*
X3182990Y1490490D01*
X3155430Y1469330D01*
X3116060Y1458750D01*
X3076690Y1469330D01*
X3049130Y1490490D01*
X3025510Y1522250D01*
X3009760Y1559290D01*
X3001880Y1601620D01*
Y1638670D01*
X3009760Y1670410D01*
X3025510Y1707460D01*
X3049130Y1739210D01*
X3072750Y1760370D01*
X3104250Y1776250D01*
X3131810D01*
X3163300Y1765670D01*
X3186930Y1744500D01*
G01X3332600Y1776250D02*
Y1548710D01*
X3348340Y1501070D01*
X3379840Y1469330D01*
X3419210Y1458750D01*
X3458580Y1469330D01*
X3490080Y1501070D01*
X3505820Y1548710D01*
Y1776250D01*
G01X3655430Y1458750D02*
Y1776250D01*
X3753850D01*
X3785350Y1760370D01*
X3805040Y1739210D01*
X3812910Y1696870D01*
X3805040Y1654540D01*
X3781410Y1628090D01*
X3753850Y1612200D01*
X3655430D01*
G01X3753850D02*
X3812910Y1458750D01*
G01X4127870D02*
X3970390D01*
Y1776250D01*
X4127870D01*
G01X4064880Y1622800D02*
X3970390D01*
G01X2120000Y1300000D02*
X14403440D01*
G01X2120000Y1935000D02*
X14403440D01*
G01X2120000Y2570000D02*
X14403440D01*
G01X3911330Y2093750D02*
X4009760Y2411250D01*
X4108190Y2093750D01*
G01X4072750Y2204870D02*
X3946760D01*
G01X4245980Y2411250D02*
Y2093750D01*
X4403460D01*
G01X4560940Y2411250D02*
Y2093750D01*
X4718420D01*
G01X5182990Y2411250D02*
Y2183710D01*
X5198730Y2136070D01*
X5230230Y2104330D01*
X5269600Y2093750D01*
X5308970Y2104330D01*
X5340470Y2136070D01*
X5356210Y2183710D01*
Y2411250D01*
G01X5494010Y2093750D02*
Y2411250D01*
X5675110Y2093750D01*
Y2411250D01*
G01X5852280D02*
X5946760D01*
G01X5899520D02*
Y2093750D01*
G01X5852280D02*
X5946760D01*
G01X6214480Y2411250D02*
Y2093750D01*
G01X6123930Y2411250D02*
X6305030D01*
G01X6446760Y2136070D02*
X6478260Y2109620D01*
X6513690Y2093750D01*
X6545190D01*
X6576680Y2109620D01*
X6600310Y2136070D01*
X6612120Y2173130D01*
X6604250Y2210160D01*
X6584560Y2241910D01*
X6549120Y2263090D01*
X6501880Y2273670D01*
X6474320Y2294830D01*
X6462510Y2331870D01*
X6470390Y2368920D01*
X6490070Y2395370D01*
X6517630Y2411250D01*
X6545190D01*
X6572750Y2400670D01*
X6596370Y2374210D01*
G01X7060930Y2093750D02*
X7159360Y2411250D01*
X7257790Y2093750D01*
G01X7222350Y2204870D02*
X7096360D01*
G01X7395580Y2093750D02*
Y2411250D01*
X7494000D01*
X7525500Y2395370D01*
X7545190Y2374210D01*
X7553060Y2331870D01*
X7545190Y2289540D01*
X7521560Y2263090D01*
X7494000Y2247200D01*
X7395580D01*
G01X7494000D02*
X7553060Y2093750D01*
G01X7868020D02*
X7710540D01*
Y2411250D01*
X7868020D01*
G01X7805030Y2257800D02*
X7710540D01*
G01X8371960Y2411250D02*
X8466440D01*
G01X8419200D02*
Y2093750D01*
G01X8371960D02*
X8466440D01*
G01X8643610D02*
Y2411250D01*
X8824710Y2093750D01*
Y2411250D01*
G01X9261710Y2093750D02*
Y2411250D01*
X9364080Y2146670D01*
X9466450Y2411250D01*
Y2093750D01*
G01X9631800Y2411250D02*
X9726280D01*
G01X9679040D02*
Y2093750D01*
G01X9631800D02*
X9726280D01*
G01X9915260Y2411250D02*
Y2093750D01*
X10072740D01*
G01X10230220Y2411250D02*
Y2093750D01*
X10387700D01*
G01X10576680Y2411250D02*
X10671160D01*
G01X10623920D02*
Y2093750D01*
G01X10576680D02*
X10671160D01*
G01X10836510D02*
Y2411250D01*
X10938880Y2146670D01*
X11041250Y2411250D01*
Y2093750D01*
G01X11332580D02*
X11175100D01*
Y2411250D01*
X11332580D01*
G01X11269590Y2257800D02*
X11175100D01*
G01X11568800Y2411250D02*
Y2093750D01*
G01X11478250Y2411250D02*
X11659350D01*
G01X11962500Y2093750D02*
X11805020D01*
Y2411250D01*
X11962500D01*
G01X11899510Y2257800D02*
X11805020D01*
G01X12119980Y2093750D02*
Y2411250D01*
X12218400D01*
X12249900Y2395370D01*
X12269590Y2374210D01*
X12277460Y2331870D01*
X12269590Y2289540D01*
X12245960Y2263090D01*
X12218400Y2247200D01*
X12119980D01*
G01X12218400D02*
X12277460Y2093750D01*
G01X12431000Y2136070D02*
X12462500Y2109620D01*
X12497930Y2093750D01*
X12529430D01*
X12560920Y2109620D01*
X12584550Y2136070D01*
X12596360Y2173130D01*
X12588490Y2210160D01*
X12568800Y2241910D01*
X12533360Y2263090D01*
X12486120Y2273670D01*
X12458560Y2294830D01*
X12446750Y2331870D01*
X12454630Y2368920D01*
X12474310Y2395370D01*
X12501870Y2411250D01*
X12529430D01*
X12556990Y2400670D01*
X12580610Y2374210D01*
G01X4403460Y1935000D02*
Y30000D01*
G01X4238110Y2743750D02*
Y3061250D01*
X4316840D01*
X4348340Y3045370D01*
X4371960Y3024210D01*
X4391650Y2992460D01*
X4407400Y2955410D01*
X4411330Y2902500D01*
X4407400Y2849580D01*
X4391650Y2812540D01*
X4371960Y2780780D01*
X4348340Y2759620D01*
X4316840Y2743750D01*
X4238110D01*
G01X4560940D02*
Y3061250D01*
X4659360D01*
X4690860Y3045370D01*
X4710550Y3024210D01*
X4718420Y2981870D01*
X4710550Y2939540D01*
X4686920Y2913090D01*
X4659360Y2897200D01*
X4560940D01*
G01X4659360D02*
X4718420Y2743750D01*
G01X4907400Y3061250D02*
X5001880D01*
G01X4954640D02*
Y2743750D01*
G01X4907400D02*
X5001880D01*
G01X5190860Y3061250D02*
Y2743750D01*
X5348340D01*
G01X5505820Y3061250D02*
Y2743750D01*
X5663300D01*
G01X6301090Y3034790D02*
X6277470Y3050670D01*
X6249920Y3061250D01*
X6218420D01*
X6182980Y3045370D01*
X6155430Y3018920D01*
X6135740Y2987160D01*
X6119990Y2934250D01*
X6116050Y2886620D01*
X6123930Y2839000D01*
X6135740Y2807250D01*
X6159360Y2775490D01*
X6186920Y2754330D01*
X6214480Y2743750D01*
X6242040D01*
X6269600Y2754330D01*
X6293220Y2770200D01*
X6312910Y2791360D01*
G01X6446760Y2743750D02*
Y3061250D01*
G01X6612120D02*
Y2743750D01*
G01Y2902500D02*
X6446760D01*
G01X6745970Y2743750D02*
X6844400Y3061250D01*
X6942830Y2743750D01*
G01X6907390Y2854870D02*
X6781400D01*
G01X7080620Y2743750D02*
Y3061250D01*
X7179040D01*
X7210540Y3045370D01*
X7230230Y3024210D01*
X7238100Y2981870D01*
X7230230Y2939540D01*
X7206600Y2913090D01*
X7179040Y2897200D01*
X7080620D01*
G01X7179040D02*
X7238100Y2743750D01*
G01X7474320Y3061250D02*
Y2743750D01*
G01X7383770Y3061250D02*
X7564870D01*
G01X7789280Y2733170D02*
X7781400Y2738460D01*
Y2749040D01*
X7789280Y2754330D01*
X7797160Y2749040D01*
Y2738460D01*
X7789280Y2733170D01*
G01Y2876030D02*
X7781400Y2881330D01*
Y2891910D01*
X7789280Y2897200D01*
X7797160Y2891910D01*
Y2881330D01*
X7789280Y2876030D01*
G01X8419200Y3061250D02*
Y2743750D01*
G01X8328650Y3061250D02*
X8509750D01*
G01X8734160Y2743750D02*
X8702660Y2749040D01*
X8675110Y2770200D01*
X8651480Y2801960D01*
X8635730Y2839000D01*
X8627860Y2881330D01*
Y2923670D01*
X8635730Y2966000D01*
X8651480Y3003040D01*
X8675110Y3034790D01*
X8702660Y3055960D01*
X8734160Y3061250D01*
X8765650Y3055960D01*
X8793210Y3034790D01*
X8816840Y3003040D01*
X8832590Y2966000D01*
X8840460Y2923670D01*
Y2881330D01*
X8832590Y2839000D01*
X8816840Y2801960D01*
X8793210Y2770200D01*
X8765650Y2749040D01*
X8734160Y2743750D01*
G01X8970380D02*
Y3061250D01*
X9064870D01*
X9096360Y3045370D01*
X9119990Y3008330D01*
X9127860Y2966000D01*
X9119990Y2923670D01*
X9100300Y2891910D01*
X9064870Y2876030D01*
X8970380D01*
G01X9679040Y3061250D02*
Y2743750D01*
G01X9623920Y2955410D02*
X9734160D01*
G01X9994000Y2743750D02*
X9970380Y2749040D01*
X9946760Y2770200D01*
X9931000Y2807250D01*
X9923130Y2849580D01*
X9931000Y2891910D01*
X9946760Y2928960D01*
X9970380Y2950120D01*
X9994000Y2955410D01*
X10017620Y2950120D01*
X10041240Y2928960D01*
X10056990Y2891910D01*
X10060930Y2849580D01*
X10056990Y2807250D01*
X10041240Y2770200D01*
X10017620Y2749040D01*
X9994000Y2743750D01*
G01X10655410Y2913090D02*
X10671160Y2928960D01*
X10682970Y2955410D01*
X10690850Y2992460D01*
X10682970Y3024210D01*
X10667230Y3045370D01*
X10639670Y3061250D01*
X10533370D01*
Y2743750D01*
X10663290D01*
X10690850Y2764910D01*
X10706600Y2796670D01*
X10714470Y2833710D01*
X10706600Y2870740D01*
X10682970Y2902500D01*
X10655410Y2913090D01*
X10533370D01*
G01X10938880Y2743750D02*
X10907380Y2749040D01*
X10879830Y2770200D01*
X10856200Y2801960D01*
X10840450Y2839000D01*
X10832580Y2881330D01*
Y2923670D01*
X10840450Y2966000D01*
X10856200Y3003040D01*
X10879830Y3034790D01*
X10907380Y3055960D01*
X10938880Y3061250D01*
X10970370Y3055960D01*
X10997930Y3034790D01*
X11021560Y3003040D01*
X11037310Y2966000D01*
X11045180Y2923670D01*
Y2881330D01*
X11037310Y2839000D01*
X11021560Y2801960D01*
X10997930Y2770200D01*
X10970370Y2749040D01*
X10938880Y2743750D01*
G01X11253840Y3061250D02*
Y2743750D01*
G01X11163290Y3061250D02*
X11344390D01*
G01X11568800D02*
Y2743750D01*
G01X11478250Y3061250D02*
X11659350D01*
G01X11883760Y2743750D02*
X11852260Y2749040D01*
X11824710Y2770200D01*
X11801080Y2801960D01*
X11785330Y2839000D01*
X11777460Y2881330D01*
Y2923670D01*
X11785330Y2966000D01*
X11801080Y3003040D01*
X11824710Y3034790D01*
X11852260Y3055960D01*
X11883760Y3061250D01*
X11915250Y3055960D01*
X11942810Y3034790D01*
X11966440Y3003040D01*
X11982190Y2966000D01*
X11990060Y2923670D01*
Y2881330D01*
X11982190Y2839000D01*
X11966440Y2801960D01*
X11942810Y2770200D01*
X11915250Y2749040D01*
X11883760Y2743750D01*
G01X12096350D02*
Y3061250D01*
X12198720Y2796670D01*
X12301090Y3061250D01*
Y2743750D01*
G01X6017630Y1141250D02*
X5986130Y1130670D01*
X5962510Y1104210D01*
X5946760Y1072460D01*
X5934950Y1030120D01*
X5931020Y982500D01*
X5934950Y934870D01*
X5946760Y892540D01*
X5962510Y860780D01*
X5986130Y834330D01*
X6017630Y823750D01*
X6049120Y834330D01*
X6072750Y860780D01*
X6088500Y892540D01*
X6100310Y934870D01*
X6104240Y982500D01*
X6100310Y1030120D01*
X6088500Y1072460D01*
X6072750Y1104210D01*
X6049120Y1130670D01*
X6017630Y1141250D01*
G01X6332590Y813170D02*
X6324710Y818460D01*
Y829040D01*
X6332590Y834330D01*
X6340470Y829040D01*
Y818460D01*
X6332590Y813170D01*
G01X6560940Y887250D02*
X6584550Y850200D01*
X6616050Y829040D01*
X6651490Y823750D01*
X6682990Y829040D01*
X6714480Y855490D01*
X6734160Y887250D01*
X6738100Y919000D01*
X6730230Y956030D01*
X6702670Y982500D01*
X6675110Y993090D01*
X6639670D01*
G01X6675110D02*
X6698730Y1008960D01*
X6718420Y1035410D01*
X6726290Y1067160D01*
X6718420Y1098920D01*
X6698730Y1125370D01*
X6663300Y1141250D01*
X6627870Y1135960D01*
X6592430Y1114790D01*
G01X6962510Y1141250D02*
X6931010Y1130670D01*
X6907390Y1104210D01*
X6891640Y1072460D01*
X6879830Y1030120D01*
X6875900Y982500D01*
X6879830Y934870D01*
X6891640Y892540D01*
X6907390Y860780D01*
X6931010Y834330D01*
X6962510Y823750D01*
X6994000Y834330D01*
X7017630Y860780D01*
X7033380Y892540D01*
X7045190Y934870D01*
X7049120Y982500D01*
X7045190Y1030120D01*
X7033380Y1072460D01*
X7017630Y1104210D01*
X6994000Y1130670D01*
X6962510Y1141250D01*
G01X7324710Y823750D02*
Y1141250D01*
X7179040Y913710D01*
X7375900D01*
G01X7592430Y823750D02*
X7619990Y829040D01*
X7651480Y844910D01*
X7671170Y871360D01*
X7679040Y908420D01*
X7671170Y945450D01*
X7647550Y977200D01*
X7612110Y993090D01*
X7572750D01*
X7549120Y1003670D01*
X7529430Y1030120D01*
X7521560Y1067160D01*
X7533380Y1104210D01*
X7560930Y1130670D01*
X7592430Y1141250D01*
X7623920Y1130670D01*
X7651480Y1104210D01*
X7663300Y1067160D01*
X7655420Y1030120D01*
X7635740Y1003670D01*
X7612110Y993090D01*
X7572750D01*
X7537310Y977200D01*
X7513690Y945450D01*
X7505820Y908420D01*
X7513690Y871360D01*
X7533380Y844910D01*
X7564870Y829040D01*
X7592430Y823750D01*
G01X6490070Y506250D02*
X6458570Y495670D01*
X6434950Y469210D01*
X6419200Y437460D01*
X6407390Y395120D01*
X6403460Y347500D01*
X6407390Y299870D01*
X6419200Y257540D01*
X6434950Y225780D01*
X6458570Y199330D01*
X6490070Y188750D01*
X6521560Y199330D01*
X6545190Y225780D01*
X6560940Y257540D01*
X6572750Y299870D01*
X6576680Y347500D01*
X6572750Y395120D01*
X6560940Y437460D01*
X6545190Y469210D01*
X6521560Y495670D01*
X6490070Y506250D01*
G01X6805030Y178170D02*
X6797150Y183460D01*
Y194040D01*
X6805030Y199330D01*
X6812910Y194040D01*
Y183460D01*
X6805030Y178170D01*
G01X7033380Y236360D02*
X7056990Y209910D01*
X7084550Y194040D01*
X7119990Y188750D01*
X7155430Y199330D01*
X7182980Y220490D01*
X7202670Y257540D01*
X7206600Y299870D01*
X7198730Y342200D01*
X7179040Y368670D01*
X7151480Y389830D01*
X7123930Y395120D01*
X7096370Y389830D01*
X7060940Y368670D01*
X7072750Y506250D01*
X7179040D01*
G01X6249910Y1501070D02*
X6281410Y1474620D01*
X6316840Y1458750D01*
X6348340D01*
X6379830Y1474620D01*
X6403460Y1501070D01*
X6415270Y1538130D01*
X6407400Y1575160D01*
X6387710Y1606910D01*
X6352270Y1628090D01*
X6305030Y1638670D01*
X6277470Y1659830D01*
X6265660Y1696870D01*
X6273540Y1733920D01*
X6293220Y1760370D01*
X6320780Y1776250D01*
X6348340D01*
X6375900Y1765670D01*
X6399520Y1739210D01*
G01X6600310Y1776250D02*
X6694790D01*
G01X6647550D02*
Y1458750D01*
G01X6600310D02*
X6694790D01*
G01X6887700Y1776250D02*
X7037320D01*
X6887700Y1458750D01*
X7037320D01*
G01X7356210D02*
X7198730D01*
Y1776250D01*
X7356210D01*
G01X7293220Y1622800D02*
X7198730D01*
G01X9206600Y1935000D02*
Y30000D01*
G01X9954630Y188750D02*
Y506250D01*
X10049120D01*
X10080610Y490370D01*
X10104240Y453330D01*
X10112110Y411000D01*
X10104240Y368670D01*
X10084550Y336910D01*
X10049120Y321030D01*
X9954630D01*
G01X10269590Y506250D02*
Y188750D01*
X10427070D01*
G01X10564860D02*
X10663290Y506250D01*
X10761720Y188750D01*
G01X10726280Y299870D02*
X10600290D01*
G01X10978250Y506250D02*
Y188750D01*
G01X10887700Y506250D02*
X11068800D01*
G01X11371950Y188750D02*
X11214470D01*
Y506250D01*
X11371950D01*
G01X11308960Y352800D02*
X11214470D01*
G01X11521560Y188750D02*
Y506250D01*
X11600290D01*
X11631790Y490370D01*
X11655410Y469210D01*
X11675100Y437460D01*
X11690850Y400410D01*
X11694780Y347500D01*
X11690850Y294580D01*
X11675100Y257540D01*
X11655410Y225780D01*
X11631790Y204620D01*
X11600290Y188750D01*
X11521560D01*
G01X9954630Y823750D02*
Y1141250D01*
X10049120D01*
X10080610Y1125370D01*
X10104240Y1088330D01*
X10112110Y1046000D01*
X10104240Y1003670D01*
X10084550Y971910D01*
X10049120Y956030D01*
X9954630D01*
G01X10269590Y1141250D02*
Y823750D01*
X10427070D01*
G01X10564860D02*
X10663290Y1141250D01*
X10761720Y823750D01*
G01X10726280Y934870D02*
X10600290D01*
G01X10978250Y1141250D02*
Y823750D01*
G01X10887700Y1141250D02*
X11068800D01*
G01X11371950Y823750D02*
X11214470D01*
Y1141250D01*
X11371950D01*
G01X11308960Y987800D02*
X11214470D01*
G01X11521560Y823750D02*
Y1141250D01*
X11600290D01*
X11631790Y1125370D01*
X11655410Y1104210D01*
X11675100Y1072460D01*
X11690850Y1035410D01*
X11694780Y982500D01*
X11690850Y929580D01*
X11675100Y892540D01*
X11655410Y860780D01*
X11631790Y839620D01*
X11600290Y823750D01*
X11521560D01*
G01X9954630Y1458750D02*
Y1776250D01*
X10049120D01*
X10080610Y1760370D01*
X10104240Y1723330D01*
X10112110Y1681000D01*
X10104240Y1638670D01*
X10084550Y1606910D01*
X10049120Y1591030D01*
X9954630D01*
G01X10269590Y1776250D02*
Y1458750D01*
X10427070D01*
G01X10564860D02*
X10663290Y1776250D01*
X10761720Y1458750D01*
G01X10726280Y1569870D02*
X10600290D01*
G01X10978250Y1776250D02*
Y1458750D01*
G01X10887700Y1776250D02*
X11068800D01*
G01X11371950Y1458750D02*
X11214470D01*
Y1776250D01*
X11371950D01*
G01X11308960Y1622800D02*
X11214470D01*
G01X11521560Y1458750D02*
Y1776250D01*
X11600290D01*
X11631790Y1760370D01*
X11655410Y1739210D01*
X11675100Y1707460D01*
X11690850Y1670410D01*
X11694780Y1617500D01*
X11690850Y1564580D01*
X11675100Y1527540D01*
X11655410Y1495780D01*
X11631790Y1474620D01*
X11600290Y1458750D01*
X11521560D01*
G01X12434940Y1935000D02*
Y30000D01*
G01X13186900Y1088330D02*
X13210530Y1120080D01*
X13238090Y1135960D01*
X13269590Y1141250D01*
X13308950Y1130670D01*
X13336520Y1104210D01*
X13344390Y1072460D01*
X13340450Y1040700D01*
X13324700Y1014250D01*
X13245960Y961330D01*
X13210530Y924290D01*
X13186900Y871360D01*
X13179030Y823750D01*
X13344390D01*
G01X13490060Y871360D02*
X13513670Y844910D01*
X13541230Y829040D01*
X13576670Y823750D01*
X13612110Y834330D01*
X13639660Y855490D01*
X13659350Y892540D01*
X13663280Y934870D01*
X13655410Y977200D01*
X13635720Y1003670D01*
X13608160Y1024830D01*
X13580610Y1030120D01*
X13553050Y1024830D01*
X13517620Y1003670D01*
X13529430Y1141250D01*
X13635720D01*
G01X13104230Y1458750D02*
X13072730Y1464040D01*
X13045180Y1485200D01*
X13021550Y1516960D01*
X13005800Y1554000D01*
X12997930Y1596330D01*
Y1638670D01*
X13005800Y1681000D01*
X13021550Y1718040D01*
X13045180Y1749790D01*
X13072730Y1770960D01*
X13104230Y1776250D01*
X13135720Y1770960D01*
X13163280Y1749790D01*
X13186910Y1718040D01*
X13202660Y1681000D01*
X13210530Y1638670D01*
Y1596330D01*
X13202660Y1554000D01*
X13186910Y1516960D01*
X13163280Y1485200D01*
X13135720Y1464040D01*
X13104230Y1458750D01*
G01X13135720Y1543420D02*
X13182970Y1458750D01*
G01X13419190Y1776250D02*
Y1458750D01*
G01X13328640Y1776250D02*
X13509740D01*
G01X13734150Y1458750D02*
Y1601620D01*
X13655410Y1776250D01*
G01X13812890D02*
X13734150Y1601620D01*
G01X13344380Y321030D02*
X13371950Y358090D01*
X13395570Y379250D01*
X13427070Y389830D01*
X13454630Y379250D01*
X13474310Y358090D01*
X13490060Y326330D01*
X13494000Y289290D01*
X13490060Y257540D01*
X13474310Y225780D01*
X13450680Y199330D01*
X13423130Y188750D01*
X13391630Y199330D01*
X13364070Y231070D01*
X13348320Y278710D01*
X13344380Y331620D01*
X13352260Y400410D01*
X13364070Y437460D01*
X13383750Y474500D01*
X13411310Y500960D01*
X13438870Y506250D01*
X13466430Y495670D01*
X13486120Y469210D01*
M02*
