M48
METRIC,TZ
T01C.3048
T02C.5
;LEADER: 12 
;HEADER: 
;CODE  : ASCII 
;FILE  : SCA830D07_V10A-1-2.drl for board G:/HUIYUAN COMMUNICATION/13ÔÆÌ¨½»»»»ú/CADENCE/SCA830D07_V10A/PCB/#Taaaaab05108.tmp ... layers TOP and BOTTOM
;T01 Holesize 1. = 0.304800 Tolerance = +0.000000/-0.000000 PLATED MM Quantity = 25
;T02 Holesize 2. = 0.500000 Tolerance = +0.000000/-0.000000 PLATED MM Quantity = 6
%
G90
T01
X80000Y930000
X220000Y930000
X80000Y1710000
X220000Y1710000
X380000Y1710000
X380000Y1570000
X380000Y1430000
X290000Y1170000
X290000Y1070000
X380000Y930000
X520000Y930000
X670000Y930000
X730000Y1070000
X730000Y1170000
X530000Y1570000
X670000Y1570000
X520000Y1710000
X670000Y1710000
X810000Y1710000
X1200000Y1530000
X1200000Y1340000
X1500000Y1170000
X1640000Y1170000
X1740000Y890000
X1600000Y890000
T02
X980000Y500000
X1120000Y500000
X1260000Y500000
X1400000Y500000
X1540000Y500000
X1680000Y500000
M30
