G04 ================== begin FILE IDENTIFICATION RECORD ==================*
G04 Layout Name:  TPA61088_TEST_V10A.brd*
G04 Film Name:    SolderMask_Top*
G04 File Format:  Gerber RS274X*
G04 File Origin:  Cadence Allegro 16.6-2015-S095*
G04 Origin Date:  Thu Nov 09 19:05:22 2017*
G04 *
G04 Layer:  BOARD GEOMETRY/OUTLINE*
G04 Layer:  PIN/SOLDERMASK_TOP*
G04 Layer:  PACKAGE GEOMETRY/SOLDERMASK_TOP*
G04 Layer:  BOARD GEOMETRY/SOLDERMASK_TOP*
G04 *
G04 Offset:    (0.0000 0.0000)*
G04 Mirror:    No*
G04 Mode:      Positive*
G04 Rotation:  0*
G04 FullContactRelief:  No*
G04 UndefLineWidth:     0.1524*
G04 ================== end FILE IDENTIFICATION RECORD ====================*
%FSLAX55Y55*MOMM*%
%IR0*IPPOS*OFA0.00000B0.00000*MIA0B0*SFA1.00000B1.00000*%
%ADD17C,.85*%
%ADD18R,.9144X.9144*%
%AMMACRO21*
4,1,20,-1.125,-1.625,
-1.125,1.625,
-.45,1.625,
-.45,2.75,
0.0,2.75,
0.0,2.025,
.05,2.025,
.05,2.75,
.5,2.75,
.5,1.625,
1.125,1.625,
1.125,-1.625,
.5,-1.625,
.5,-2.75,
.05,-2.75,
.05,-2.025,
0.0,-2.025,
0.0,-2.75,
-.45,-2.75,
-.45,-1.625,
-1.125,-1.625,
0.0*
%
%ADD21MACRO21*%
%ADD22R,1.9X1.7*%
%ADD15R,2.4X3.9*%
%ADD14R,1.4224X1.4224*%
%ADD12R,3.048X2.54*%
%ADD10C,6.35*%
%ADD23R,1.2192X1.4224*%
%ADD16C,1.905*%
%ADD20R,.95X.38*%
%ADD19R,.38X.95*%
%ADD11C,2.667*%
%ADD13R,1.905X1.905*%
%ADD24C,.1524*%
G75*
%LPD*%
G75*
G36*
G01X2100000Y1590000D02*
Y2120000D01*
X1590000D01*
Y1590000D01*
X2100000D01*
G37*
G36*
G01X2820000D02*
Y2120000D01*
X2580000D01*
Y1590000D01*
X2820000D01*
G37*
G54D10*
X330000Y330000D03*
Y2670000D03*
X6070000Y330000D03*
Y2670000D03*
G54D11*
X240000Y1118000D03*
Y1880000D03*
X6160000Y1130000D03*
Y1892000D03*
G54D20*
X3200000Y1385000D03*
Y1435000D03*
Y1485000D03*
Y1535000D03*
Y1585000D03*
Y1635000D03*
Y1685000D03*
Y1735000D03*
X3560000Y1685000D03*
Y1635000D03*
Y1585000D03*
Y1535000D03*
Y1485000D03*
Y1435000D03*
Y1385000D03*
Y1735000D03*
G54D12*
X1540000Y577100D03*
Y1262900D03*
G54D21*
X3380000Y1560000D03*
G54D13*
X2443000Y320000D03*
X2920000Y2650000D03*
X4003000Y320000D03*
G54D22*
X4240000Y1157760D03*
X4510000D03*
X4240000Y1442240D03*
X4510000D03*
X4780000Y1157760D03*
Y1442240D03*
G54D23*
X5348400Y310000D03*
X5551600D03*
G54D14*
X2160000Y1005860D03*
Y1214140D03*
X1950000Y1005860D03*
Y1214140D03*
G54D24*
G01X330000Y0D02*
X6070000D01*
G03X6400000Y330000I0J330000D01*
G01Y2670000D01*
G03X6070000Y3000000I-330000J0D01*
G01X330000D01*
G03X0Y2670000I0J-330000D01*
G01Y330000D01*
G03X330000Y0I330000J0D01*
G54D15*
X1980000Y1780000D03*
X2700000D03*
G54D16*
X2412000Y2650000D03*
X2697000Y320000D03*
X2666000Y2650000D03*
X4257000Y320000D03*
G54D17*
X2440000Y1230000D03*
X2700000D03*
X5070000Y1440000D03*
G54D18*
X3230000Y1146200D03*
Y993800D03*
X2990000Y1146200D03*
Y993800D03*
Y1516200D03*
Y1363800D03*
Y1693800D03*
X3240000Y2176200D03*
Y2023800D03*
X2990000Y1846200D03*
X4000000Y1713800D03*
X4020000Y1456200D03*
Y1303800D03*
X3850000Y1713800D03*
X4000000Y1866200D03*
X3850000Y2186200D03*
Y2033800D03*
X3680000Y2186200D03*
Y2033800D03*
X3850000Y1866200D03*
X4180000Y1713800D03*
X4333800Y1710000D03*
X4486200D03*
X4180000Y1866200D03*
X4633800Y1710000D03*
X4786200D03*
X4633800Y1870000D03*
X4786200D03*
X5383800Y500000D03*
X5536200D03*
G54D19*
X3455000Y1330000D03*
X3305000D03*
X3455000Y1790000D03*
X3305000D03*
M02*
