G04 ================== begin FILE IDENTIFICATION RECORD ==================*
G04 Layout Name:  TPA61088_TEST_V10A.brd*
G04 Film Name:    TOP*
G04 File Format:  Gerber RS274X*
G04 File Origin:  Cadence Allegro 16.6-2015-S095*
G04 Origin Date:  Thu Nov 09 19:05:21 2017*
G04 *
G04 Layer:  BOARD GEOMETRY/OUTLINE*
G04 Layer:  VIA CLASS/TOP*
G04 Layer:  PIN/TOP*
G04 Layer:  ETCH/TOP*
G04 *
G04 Offset:    (0.0000 0.0000)*
G04 Mirror:    No*
G04 Mode:      Positive*
G04 Rotation:  0*
G04 FullContactRelief:  No*
G04 UndefLineWidth:     0.1524*
G04 ================== end FILE IDENTIFICATION RECORD ====================*
%FSLAX55Y55*MOMM*%
%IR0*IPPOS*OFA0.00000B0.00000*MIA0B0*SFA1.00000B1.00000*%
%ADD18C,.75*%
%ADD12C,.6096*%
%ADD23R,1.8X1.6*%
%ADD16R,2.3X3.8*%
%ADD15R,1.27X1.27*%
%ADD25R,1.016X1.2192*%
%ADD11C,2.54*%
%ADD13R,3.048X2.54*%
%ADD21R,.85X.28*%
%ADD10C,6.35*%
%ADD20R,.28X.85*%
%ADD17C,1.778*%
%ADD19R,.9144X.9144*%
%ADD24R,.9144X.9144*%
%ADD14R,1.778X1.778*%
%AMMACRO22*
4,1,20,-1.025,1.525,
-.35,1.525,
-.35,2.65,
-.1,2.65,
-.1,1.925,
.15,1.925,
.15,2.65,
.4,2.65,
.4,1.525,
1.025,1.525,
1.025,-1.525,
.4,-1.525,
.4,-2.65,
.15,-2.65,
.15,-1.925,
-.1,-1.925,
-.1,-2.65,
-.35,-2.65,
-.35,-1.525,
-1.025,-1.525,
-1.025,1.525,
0.0*
%
%ADD22MACRO22*%
%ADD26C,.254*%
%ADD27C,.1524*%
%ADD28C,.508*%
G75*
%LPD*%
G75*
G36*
G01X330000Y10000D02*
X10000Y330000D01*
Y2670000D01*
X330000Y2990000D01*
X6070000D01*
X6390000Y2670000D01*
Y330000D01*
X6070000Y10000D01*
X330000D01*
G37*
%LPC*%
G75*
G36*
G01X3863280Y217510D02*
X3814240Y266640D01*
X3787900D01*
X3666640Y387900D01*
Y1347900D01*
X3634200Y1380340D01*
X3476840D01*
Y1424260D01*
X3474260D01*
Y1645740D01*
X3476840D01*
Y1789660D01*
X3614200D01*
X3626640Y1802100D01*
Y1935330D01*
X3593620Y1972680D01*
Y2120180D01*
X3936380D01*
Y1972680D01*
X3916330Y1950000D01*
X3936380Y1927320D01*
Y1800180D01*
X4241120D01*
X4258690Y1784640D01*
X4274910Y1796380D01*
X4547420D01*
Y1956380D01*
X4872580D01*
Y1808880D01*
X4855890Y1790000D01*
X4872580Y1771120D01*
Y1645740D01*
X6248950D01*
X6345740Y1548950D01*
Y781050D01*
X6278950Y714260D01*
X5589560D01*
Y598470D01*
X5622580Y561120D01*
Y413620D01*
X5447840D01*
X5438430Y402970D01*
X5439860Y371900D01*
Y208380D01*
X5256940D01*
Y411620D01*
X5285510D01*
X5304640Y430710D01*
X5297420Y438880D01*
Y586380D01*
X5472160D01*
X5482840Y598470D01*
Y714260D01*
X5121050D01*
X4994260Y841050D01*
Y1271050D01*
X4961050Y1304260D01*
X4141050D01*
X4123730Y1321580D01*
X4109340D01*
Y1335970D01*
X4081050Y1364260D01*
X3791050D01*
X3790700Y1364610D01*
G03X3773360Y1357430I-7181J-7186D01*
G01Y432100D01*
X3823160Y382300D01*
X3863280Y422490D01*
Y459720D01*
X4142720D01*
Y180280D01*
X3863280D01*
Y217510D01*
G37*
G36*
G01X2585740Y174260D02*
X2274260D01*
Y1071050D01*
X2261050Y1084260D01*
X1091050D01*
X641050Y1534260D01*
X181050D01*
X54260Y1661050D01*
Y2198950D01*
X151050Y2295740D01*
X2218950D01*
X2310000Y2204690D01*
X2391050Y2285740D01*
X2848950D01*
X2915740Y2218950D01*
Y1932580D01*
X3026640D01*
Y2317900D01*
X2997900Y2346640D01*
X2727900D01*
X2612640Y2461900D01*
Y2505770D01*
X2568720Y2549710D01*
X2568670Y2549760D01*
G02X2748030Y2763100I97340J100230D01*
G03X2780280Y2779550I11929J16451D01*
G01Y2789720D01*
X3059720D01*
Y2603700D01*
X3199400Y2464020D01*
Y2157820D01*
X3247040Y2110180D01*
X3326380D01*
Y1963630D01*
X3306060Y1938650D01*
Y1899400D01*
X3331510Y1873960D01*
X3359660Y1852820D01*
Y1706840D01*
X3285740D01*
Y1413160D01*
X3359660D01*
Y1246840D01*
X3358360D01*
Y1199100D01*
X3316380Y1157120D01*
Y1059820D01*
X3144510D01*
X3138950Y1054260D01*
X2958950D01*
X2855740Y951050D01*
Y241050D01*
X2788950Y174260D01*
X2621050D01*
X2603080Y192230D01*
G03X2585740Y185050I-7181J-7186D01*
G01Y174260D01*
G37*
%LPD*%
G75*
G36*
G01X2540000Y220000D02*
X2320000D01*
Y1090000D01*
X2280000Y1130000D01*
X1110000D01*
X660000Y1580000D01*
X200000D01*
X100000Y1680000D01*
Y2180000D01*
X170000Y2250000D01*
X2200000D01*
X2260000Y2190000D01*
Y1430000D01*
X2370000Y1320000D01*
X2490000D01*
X2540000Y1270000D01*
Y220000D01*
G37*
G36*
G01X2420000Y1460000D02*
X2350000Y1530000D01*
Y2180000D01*
X2410000Y2240000D01*
X2830000D01*
X2870000Y2200000D01*
Y1780000D01*
X2910000Y1740000D01*
X3014540D01*
X3040000Y1714540D01*
Y1650000D01*
X3104540D01*
X3116840Y1637700D01*
Y1630340D01*
X3240000D01*
Y1489660D01*
X3116840D01*
Y1488360D01*
X3039100D01*
X3020740Y1470000D01*
X2940000D01*
X2930000Y1460000D01*
X2420000D01*
G37*
G36*
G01X2640000Y220000D02*
X2600000Y260000D01*
Y980000D01*
X2810000Y1190000D01*
X2970000D01*
X3057420Y1277420D01*
X3076380D01*
Y1336380D01*
X3120340Y1380340D01*
X3236840D01*
Y1366840D01*
X3240000D01*
Y1330000D01*
X3150000Y1240000D01*
Y1232580D01*
X3143620D01*
Y1123620D01*
X3120000Y1100000D01*
X2940000D01*
X2920180Y1080180D01*
X2903620D01*
Y1063620D01*
X2810000Y970000D01*
Y260000D01*
X2770000Y220000D01*
X2640000D01*
G37*
G36*
G01X2691020Y1274050D02*
X2673490Y1256520D01*
X2700000Y1226820D01*
X2726510Y1256520D01*
X2708980Y1274050D01*
G03X2691020I-8980J-8980D01*
G37*
G36*
G01X2674980Y2533260D02*
X2728850Y2587150D01*
X2666000Y2653180D01*
X2603150Y2587150D01*
X2657020Y2533260D01*
G03X2674980I8980J8980D01*
G37*
G36*
G01X3048420Y1794280D02*
X3035720Y1891920D01*
X2987900Y1848580D01*
X2944280Y1800480D01*
X3034860Y1781610D01*
G03X3048420Y1794280I861J12670D01*
G37*
G36*
G01X3278300Y1839000D02*
X3291000Y1747500D01*
X3308490Y1777790D01*
X3319000Y1832500D01*
X3293870Y1851370D01*
G03X3278300Y1839000I-2871J-12370D01*
G37*
G36*
G01X3250310Y1934560D02*
X3285720Y1978080D01*
X3240000Y2030150D01*
X3194280Y1978080D01*
X3229690Y1934560D01*
G03X3250310I10310J23210D01*
G37*
G36*
G01X3144800Y1752500D02*
X3157500Y1721000D01*
X3211740Y1730160D01*
X3242500Y1749000D01*
X3158020Y1765190D01*
G03X3144800Y1752500I-519J-12690D01*
G37*
G36*
G01X3840580Y312190D02*
X3914100Y238530D01*
X4006180Y320000D01*
X3914100Y401470D01*
X3840580Y327810D01*
G03Y312190I10020J-7810D01*
G37*
G36*
G01X3643160Y1580340D02*
Y1581640D01*
X4123300D01*
X4141660Y1600000D01*
X6230000D01*
X6300000Y1530000D01*
Y800000D01*
X6260000Y760000D01*
X5140000D01*
X5040000Y860000D01*
Y1290000D01*
X4980000Y1350000D01*
X4160000D01*
X4100000Y1410000D01*
X3810000D01*
X3750000Y1470000D01*
X3695460D01*
X3677100Y1488360D01*
X3643160D01*
Y1489660D01*
X3523160D01*
Y1568850D01*
G02X3541460Y1580340I18301J-8829D01*
G01X3643160D01*
G37*
G36*
G01X3939030Y1721230D02*
X3895720Y1759520D01*
X3846820Y1713800D01*
X3895720Y1668080D01*
X3939030Y1706370D01*
G03Y1721230I-10300J7430D01*
G37*
G36*
G01X3739120Y1672750D02*
X3804280Y1668080D01*
X3853070Y1714620D01*
X3804280Y1759520D01*
X3732690Y1693110D01*
G03X3739120Y1672750I9778J-8107D01*
G37*
G36*
G01X3910970Y1706370D02*
X3954280Y1668080D01*
X4003180Y1713800D01*
X3954280Y1759520D01*
X3910970Y1721230D01*
G03Y1706370I10300J-7430D01*
G37*
G36*
G01X3687430Y1944770D02*
X3725720Y1988080D01*
X3680000Y2036980D01*
X3634280Y1988080D01*
X3672570Y1944770D01*
G03X3687430I7430J10300D01*
G37*
G36*
G01X3857430D02*
X3895720Y1988080D01*
X3850000Y2036980D01*
X3804280Y1988080D01*
X3842570Y1944770D01*
G03X3857430I7430J10300D01*
G37*
G36*
G01X3842570Y1955230D02*
X3804280Y1911920D01*
X3850000Y1863020D01*
X3895720Y1911920D01*
X3857430Y1955230D01*
G03X3842570I-7430J-10300D01*
G37*
G36*
G01X4269030Y1721230D02*
X4225720Y1759520D01*
X4176820Y1713800D01*
X4225720Y1668080D01*
X4269030Y1706370D01*
G03Y1721230I-10300J7430D01*
G37*
G36*
G01X4241080Y1706220D02*
X4288080Y1664280D01*
X4336970Y1709850D01*
X4288080Y1755720D01*
X4241730Y1722180D01*
G03X4241080Y1706220I9540J-8382D01*
G37*
G36*
G01X4575230Y1717430D02*
X4531920Y1755720D01*
X4483020Y1710000D01*
X4531920Y1664280D01*
X4575230Y1702570D01*
G03Y1717430I-10300J7430D01*
G37*
G36*
G01X4793630Y1620970D02*
X4831920Y1664280D01*
X4786200Y1713180D01*
X4740480Y1664280D01*
X4778770Y1620970D01*
G03X4793630I7430J10300D01*
G37*
G36*
G01X4544770Y1702570D02*
X4588080Y1664280D01*
X4636980Y1710000D01*
X4588080Y1755720D01*
X4544770Y1717430D01*
G03Y1702570I10300J-7430D01*
G37*
G36*
G01X4778770Y1799030D02*
X4740480Y1755720D01*
X4786200Y1706820D01*
X4831920Y1755720D01*
X4793630Y1799030D01*
G03X4778770I-7430J-10300D01*
G37*
G36*
G01X4793630Y1780970D02*
X4831920Y1824280D01*
X4786200Y1873180D01*
X4740480Y1824280D01*
X4778770Y1780970D01*
G03X4793630I7430J10300D01*
G37*
G36*
G01X4626370Y1799030D02*
X4588080Y1755720D01*
X4633800Y1706820D01*
X4679520Y1755720D01*
X4641230Y1799030D01*
G03X4626370I-7430J-10300D01*
G37*
G36*
G01X4641230Y1780970D02*
X4679520Y1824280D01*
X4633800Y1873180D01*
X4588080Y1824280D01*
X4626370Y1780970D01*
G03X4641230I7430J10300D01*
G37*
G36*
G01X5375990Y444480D02*
X5302330Y370960D01*
X5347530Y306950D01*
X5399200Y370960D01*
X5396140Y437450D01*
G03X5375990Y444480I-12344J-2988D01*
G37*
G36*
G01X5391230Y410970D02*
X5429520Y454280D01*
X5383800Y503180D01*
X5338080Y454280D01*
X5376370Y410970D01*
G03X5391230I7430J10300D01*
G37*
G36*
G01X5528770Y589030D02*
X5490480Y545720D01*
X5536200Y496820D01*
X5581920Y545720D01*
X5543630Y589030D01*
G03X5528770I-7430J-10300D01*
G37*
G54D10*
X330000Y330000D03*
Y2670000D03*
X6070000Y330000D03*
Y2670000D03*
G54D20*
X3455000Y1330000D03*
X3305000D03*
X3455000Y1790000D03*
X3305000D03*
G54D11*
X240000Y1118000D03*
Y1880000D03*
X6160000Y1130000D03*
Y1892000D03*
G54D21*
X3200000Y1385000D03*
Y1435000D03*
Y1485000D03*
Y1535000D03*
Y1585000D03*
Y1635000D03*
Y1685000D03*
Y1735000D03*
X3560000Y1685000D03*
Y1635000D03*
Y1585000D03*
Y1535000D03*
Y1485000D03*
Y1435000D03*
Y1385000D03*
Y1735000D03*
G54D12*
X109580Y812060D03*
X89580Y1382060D03*
X309580Y812060D03*
X509580D03*
X709580D03*
X289580Y1382060D03*
X489580D03*
X689580D03*
X765460Y2395330D03*
Y2595330D03*
Y2795330D03*
X1313620Y120660D03*
X1113620D03*
X913620D03*
Y310660D03*
X1113620D03*
X1313620D03*
X1319580Y812060D03*
X1119580D03*
X919580D03*
Y1002060D03*
X1119580D03*
X1319580D03*
X965460Y2395330D03*
X1165460D03*
X965460Y2595330D03*
X1165460D03*
X965460Y2795330D03*
X1165460D03*
X1813620Y490660D03*
X1713620Y120660D03*
X1513620D03*
Y310660D03*
X1713620D03*
X1813620Y680660D03*
X1719580Y812060D03*
X1519580D03*
Y1002060D03*
X1719580D03*
X1365460Y2395330D03*
X1565460D03*
X1765460D03*
X1365460Y2595330D03*
X1565460D03*
X1765460D03*
X1365460Y2795330D03*
X1565460D03*
X1765460D03*
X2013620Y490660D03*
X2213620D03*
X2113620Y120660D03*
X1913620D03*
Y310660D03*
X2113620D03*
X2213620Y680660D03*
X2013620D03*
X1965460Y2395330D03*
X2165460D03*
X1965460Y2595330D03*
X2165460D03*
X1965460Y2795330D03*
X2165460D03*
X2985400Y184790D03*
X3185400D03*
X3385400D03*
X2985400Y384790D03*
X3185400D03*
X3385400D03*
X2985400Y584790D03*
X3185400D03*
X3385400D03*
Y904790D03*
X3484790Y904600D03*
X3480000Y1120000D03*
X3484790Y1014600D03*
X3385400Y1114790D03*
Y1014790D03*
X2985400Y784790D03*
X3185400D03*
X3385400D03*
X3484790Y1214600D03*
X3385400Y1214790D03*
X3380000Y1440000D03*
X3450000D03*
X3310000D03*
X3380000Y1500000D03*
X3450000D03*
X3310000D03*
X3380000Y1620000D03*
X3450000D03*
X3310000D03*
X3380000Y1680000D03*
X3450000D03*
X3310000D03*
Y1560000D03*
X3450000D03*
X3380000D03*
X3365400Y2224790D03*
X3464790Y2224600D03*
X3470000Y2010000D03*
X3464790Y1914600D03*
Y2114600D03*
X3365400Y2014790D03*
Y2114790D03*
Y1914790D03*
X3328740Y2432960D03*
Y2632960D03*
Y2832960D03*
X3837830Y542850D03*
X4037830D03*
X3585400Y184790D03*
Y384790D03*
Y584790D03*
X4037830Y1142850D03*
X3837830D03*
X3585400Y904790D03*
Y1114790D03*
Y1014790D03*
X3837830Y742850D03*
X4037830D03*
X3837830Y942850D03*
X4037830D03*
X3585400Y784790D03*
X3840000Y1310000D03*
X3585400Y1214790D03*
X3565400Y2224790D03*
Y2014790D03*
Y2114790D03*
Y1914790D03*
X3528740Y2432960D03*
X3728740D03*
X3928740D03*
X3528740Y2632960D03*
X3728740D03*
X3928740D03*
X3528740Y2832960D03*
X3728740D03*
X3928740D03*
X4437830Y142850D03*
Y342850D03*
X4237830Y542850D03*
X4437830D03*
X4237830Y742850D03*
X4437830D03*
X4237830Y942850D03*
X4437830D03*
X4135350Y2056700D03*
X4335350D03*
X4535350D03*
X4128740Y2432960D03*
X4328740D03*
X4528740D03*
X4128740Y2632960D03*
X4328740D03*
X4528740D03*
X4128740Y2832960D03*
X4328740D03*
X4528740D03*
X4637830Y142850D03*
X4837830D03*
X4637830Y342850D03*
X4837830D03*
X4637830Y542850D03*
X4837830D03*
X4637830Y742850D03*
X4837830D03*
X4637830Y942850D03*
X4837830D03*
X4945350Y1736700D03*
X4735350Y2056700D03*
X4935350D03*
X4728740Y2432960D03*
X4928740D03*
X4728740Y2632960D03*
X4928740D03*
X4728740Y2832960D03*
X4928740D03*
X5145350Y1736700D03*
X5345350D03*
X5545350D03*
X5135350Y2056700D03*
X5335350D03*
X5535350D03*
X5128740Y2432960D03*
X5328740D03*
X5528740D03*
X5128740Y2632960D03*
X5328740D03*
X5528740D03*
X5128740Y2832960D03*
X5328740D03*
X5528740D03*
X5745350Y1736700D03*
X5945350D03*
G54D22*
X3380000Y1560000D03*
G54D13*
X1540000Y577100D03*
Y1262900D03*
G54D14*
X2443000Y320000D03*
X2920000Y2650000D03*
X4003000Y320000D03*
G54D23*
X4240000Y1157760D03*
X4510000D03*
X4240000Y1442240D03*
X4510000D03*
X4780000Y1157760D03*
Y1442240D03*
G54D24*
X4333800Y1710000D03*
X4486200D03*
X4633800D03*
X4786200D03*
X4633800Y1870000D03*
X4786200D03*
X5383800Y500000D03*
X5536200D03*
G54D15*
X2160000Y1005860D03*
Y1214140D03*
X1950000Y1005860D03*
Y1214140D03*
G54D25*
X5348400Y310000D03*
X5551600D03*
G54D16*
X1980000Y1780000D03*
X2700000D03*
G54D26*
G01Y1230000D02*
Y1480000D01*
G01X2666000Y2650000D02*
Y2484000D01*
X2750000Y2400000D01*
X3020000D01*
X3080000Y2340000D01*
Y1830000D01*
X3175000Y1735000D01*
X3200000D01*
G01X3360000Y1180000D02*
X3350000Y1170000D01*
G01X3305000Y1330000D02*
Y1221200D01*
X3230000Y1146200D01*
G01X3380000Y1560000D02*
Y1500000D01*
G01D02*
Y1440000D01*
G01X3360000Y1850000D02*
Y1580000D01*
X3380000Y1560000D01*
G01X3360000Y1220000D02*
Y1370000D01*
X3380000Y1390000D01*
Y1440000D01*
G01X3360000Y1180000D02*
Y1220000D01*
G01X3560000Y1385000D02*
X3480400D01*
X3455000Y1359600D01*
G01X3360000Y1220000D02*
X3380000Y1200000D01*
X3360000Y1180000D01*
G01X3455000Y1359600D02*
Y1330000D01*
G01X3110000Y1350000D02*
X3145000Y1385000D01*
X3200000D01*
G01Y1635000D02*
X3048800D01*
G01X2990000Y1516200D02*
X3021200Y1485000D01*
G01X3048800Y1635000D02*
X2990000Y1693800D01*
G01X3021200Y1485000D02*
X3200000D01*
G01X2990000Y1846200D02*
Y1840000D01*
X3145000Y1685000D01*
X3200000D01*
G01Y1435000D02*
X3061200D01*
X2990000Y1363800D01*
G01X3330000Y1900000D02*
X3360000Y1870000D01*
Y1850000D01*
G01D02*
X3380000Y1870000D01*
X3360000Y1890000D01*
G01X3240000D02*
X3305000Y1825000D01*
Y1790000D01*
G01X4003000Y320000D02*
X3810000D01*
X3720000Y410000D01*
Y1370000D01*
X3655000Y1435000D01*
X3560000D01*
G01X3640000Y1360000D02*
X3615000Y1385000D01*
X3560000D01*
G01X3670000Y1490000D02*
X3665000Y1485000D01*
G01X3560000Y1585000D02*
X4145000D01*
G01X3665000Y1485000D02*
X3705000D01*
G01X3665000D02*
X3560000D01*
G01X3705000D02*
X3710000Y1490000D01*
G01X3560000Y1635000D02*
X4101200D01*
X4180000Y1713800D01*
G01X3560000Y1685000D02*
X3831200D01*
X3850000Y1703800D01*
Y1713800D01*
G01X3680000Y2033800D02*
Y1780000D01*
X3635000Y1735000D01*
X3560000D01*
G01X3850000Y1713800D02*
X4000000D01*
G01X3850000Y1866200D02*
Y2033800D01*
G01X4145000Y1585000D02*
X4150000Y1590000D01*
G01X4180000Y1713800D02*
X4330000D01*
X4333800Y1710000D01*
G01X4486200D02*
X4633800D01*
G01X4786200Y1586200D02*
Y1710000D01*
G01X4780000Y1580000D02*
X4786200Y1586200D01*
G01Y1870000D02*
Y1710000D01*
G01X4633800Y1870000D02*
Y1710000D01*
G01X5383800Y500000D02*
Y345400D01*
X5348400Y310000D01*
G01X5536200Y773800D02*
Y500000D01*
G01X5530000Y780000D02*
X5536200Y773800D01*
G54D17*
X2412000Y2650000D03*
X2697000Y320000D03*
X2666000Y2650000D03*
X4257000Y320000D03*
G54D27*
G01X330000Y0D02*
X6070000D01*
G03X6400000Y330000I0J330000D01*
G01Y2670000D01*
G03X6070000Y3000000I-330000J0D01*
G01X330000D01*
G03X0Y2670000I0J-330000D01*
G01Y330000D01*
G03X330000Y0I330000J0D01*
G54D18*
X2440000Y1230000D03*
X2700000D03*
X5070000Y1440000D03*
G54D28*
G01X2160000Y1214140D02*
X2175860Y1230000D01*
G01X2920000Y2650000D02*
X3133340Y2436660D01*
Y2130460D01*
X3240000Y2023800D01*
G01D02*
Y1890000D01*
G54D19*
X3230000Y1146200D03*
Y993800D03*
X2990000Y1146200D03*
Y993800D03*
Y1516200D03*
Y1363800D03*
Y1693800D03*
X3240000Y2176200D03*
Y2023800D03*
X2990000Y1846200D03*
X4000000Y1713800D03*
X4020000Y1456200D03*
Y1303800D03*
X3850000Y1713800D03*
X4000000Y1866200D03*
X3850000Y2186200D03*
Y2033800D03*
X3680000Y2186200D03*
Y2033800D03*
X3850000Y1866200D03*
X4180000Y1713800D03*
Y1866200D03*
M02*
