G04 ================== begin FILE IDENTIFICATION RECORD ==================*
G04 Layout Name:  SCA830D07_V10A.brd*
G04 Film Name:    TOP*
G04 File Format:  Gerber RS274X*
G04 File Origin:  Cadence Allegro 16.6-2015-S095*
G04 Origin Date:  Tue Oct 31 11:40:28 2017*
G04 *
G04 Layer:  BOARD GEOMETRY/OUTLINE*
G04 Layer:  VIA CLASS/TOP*
G04 Layer:  PIN/TOP*
G04 Layer:  ETCH/TOP*
G04 *
G04 Offset:    (0.0000 0.0000)*
G04 Mirror:    No*
G04 Mode:      Positive*
G04 Rotation:  0*
G04 FullContactRelief:  No*
G04 UndefLineWidth:     0.1524*
G04 ================== end FILE IDENTIFICATION RECORD ====================*
%FSLAX55Y55*MOMM*%
%IR0*IPPOS*OFA0.00000B0.00000*MIA0B0*SFA1.00000B1.00000*%
%ADD11R,1.5X.6*%
%ADD15R,.9X5.*%
%ADD12C,.6096*%
%ADD16R,1.27X1.27*%
%ADD10R,1.016X1.2192*%
%ADD14R,.9144X.9144*%
%ADD17R,.9144X.9144*%
%ADD13R,1.1938X1.1938*%
%ADD18C,.254*%
%ADD19C,.1524*%
%ADD20C,.508*%
%ADD21C,.762*%
%ADD22C,5.0004*%
G75*
%LPD*%
G75*
G36*
G01X100000Y10000D02*
G02X10000Y100000I-5000J85000D01*
G01Y1700000D01*
G02X100000Y1790000I105000J-15000D01*
G01X1700000D01*
G02X1790000Y1700000I-11667J-101667D01*
G01Y615740D01*
X1635820D01*
Y620820D01*
X884180D01*
Y231920D01*
X855490D01*
X840350Y244560D01*
Y474490D01*
X818700D01*
X806060Y489630D01*
Y506820D01*
X814840Y517420D01*
X836380D01*
Y690140D01*
X1013560D01*
X1151920Y828500D01*
Y906430D01*
X1168270Y925840D01*
X1190020D01*
Y1134160D01*
X1168270D01*
X1160180Y1143770D01*
Y1296380D01*
X1138790D01*
X1136060Y1299720D01*
Y1407420D01*
X1156380D01*
Y1580180D01*
X980000D01*
Y1640000D01*
X740000D01*
Y1440660D01*
X738840D01*
Y1436060D01*
X492640D01*
X392640Y1336060D01*
X281160D01*
Y1340660D01*
X280000D01*
Y1640000D01*
X50000D01*
Y1340660D01*
X49840D01*
Y999340D01*
X281180D01*
X282270Y999280D01*
X282530Y999250D01*
G03X340610Y1120000I7473J70749D01*
G03X360350Y1180590I-50609J49999D01*
G02X380440Y1203940I20091J3031D01*
G01X447360D01*
X547360Y1303940D01*
X738840D01*
Y1251290D01*
X728940Y1241240D01*
X725100Y1240970D01*
G03X693700Y1231180I4901J-70970D01*
G03X679390Y1120000I36299J-61183D01*
G03X737720Y999280I50608J-49999D01*
G01X738270Y999340D01*
X981700D01*
Y925840D01*
X1003450D01*
X1019800Y906430D01*
Y883220D01*
X958840Y822260D01*
X836380D01*
Y842580D01*
X503620D01*
Y822260D01*
X340440D01*
X334590Y816420D01*
X256960Y801620D01*
X220140D01*
Y598380D01*
X403060D01*
Y633740D01*
X418020Y690140D01*
X503620D01*
Y517420D01*
X523940D01*
Y477830D01*
G02X488320Y464460I-20319J-1D01*
G03X55430Y248060I-188324J-164454D01*
G03X540090Y230230I244569J51936D01*
G02X573660Y238780I19408J-6023D01*
G01X639650Y172790D01*
Y65510D01*
X840350D01*
Y87160D01*
X855490Y99800D01*
X884180D01*
Y10000D01*
X100000D01*
G37*
G36*
G01X268790Y1076340D02*
X240500Y1100000D01*
X162320Y1070000D01*
X240500Y1040000D01*
X268790Y1063660D01*
G03Y1076340I-11000J6340D01*
G37*
G36*
G01Y1176340D02*
X240500Y1200000D01*
X162320Y1170000D01*
X240500Y1140000D01*
X268790Y1163660D01*
G03Y1176340I-11000J6340D01*
G37*
G36*
G01X270200Y1273840D02*
X240500Y1300000D01*
X159150Y1270000D01*
X240500Y1240000D01*
X270200Y1266160D01*
G03Y1273840I-25110J3840D01*
G37*
G36*
G01X856000Y178510D02*
X799690Y225550D01*
X733650Y165860D01*
X799690Y106170D01*
X856000Y153210D01*
G03Y178510I-22030J12650D01*
G37*
G36*
G01X600310Y514560D02*
X635720Y558080D01*
X590000Y610150D01*
X544280Y558080D01*
X579690Y514560D01*
G03X600310I10310J23210D01*
G37*
G36*
G01X752140Y505460D02*
X795720Y558080D01*
X750830Y610100D01*
X704280Y558080D01*
X723570Y508400D01*
G03X752140Y505460I16430J19370D01*
G37*
G36*
G01X727350Y490140D02*
X680310Y433830D01*
X740000Y367790D01*
X799690Y433830D01*
X752650Y490140D01*
G03X727350I-12650J-22030D01*
G37*
G36*
G01X368930Y781570D02*
X260800Y760960D01*
X307110Y695510D01*
X362400Y639040D01*
X393170Y755030D01*
G03X368930Y781570I-25371J1168D01*
G37*
G36*
G01X500760Y745890D02*
X544280Y710480D01*
X596350Y756200D01*
X544280Y801920D01*
X500760Y766510D01*
G03Y745890I23210J-10310D01*
G37*
G36*
G01X255880Y1061020D02*
X268460Y1048460D01*
X293180Y1070000D01*
X268460Y1091540D01*
X255880Y1078980D01*
G03Y1061020I8980J-8980D01*
G37*
G36*
G01Y1161020D02*
X268460Y1148460D01*
X293180Y1170000D01*
X268460Y1191540D01*
X255880Y1178980D01*
G03Y1161020I8980J-8980D01*
G37*
G36*
G01X751210Y1063660D02*
X779500Y1040000D01*
X857680Y1070000D01*
X779500Y1100000D01*
X751210Y1076340D01*
G03Y1063660I11000J-6340D01*
G37*
G36*
G01X764120Y1078980D02*
X751540Y1091540D01*
X726820Y1070000D01*
X751540Y1048460D01*
X764120Y1061020D01*
G03Y1078980I-8980J8980D01*
G37*
G36*
G01X751210Y1163660D02*
X779500Y1140000D01*
X857680Y1170000D01*
X779500Y1200000D01*
X751210Y1176340D01*
G03Y1163660I11000J-6340D01*
G37*
G36*
G01X764120Y1178980D02*
X751540Y1191540D01*
X726820Y1170000D01*
X751540Y1148460D01*
X764120Y1161020D01*
G03Y1178980I-8980J8980D01*
G37*
G36*
G01X839240Y766510D02*
X795720Y801920D01*
X743650Y756200D01*
X795720Y710480D01*
X839240Y745890D01*
G03Y766510I-23210J10310D01*
G37*
G36*
G01X749800Y1366160D02*
X779500Y1340000D01*
X860850Y1370000D01*
X779500Y1400000D01*
X749800Y1373840D01*
G03Y1366160I25110J-3840D01*
G37*
G36*
G01X1072790Y1153370D02*
X1022360Y1093500D01*
X1085860Y1023650D01*
X1149360Y1093500D01*
X1098930Y1153370D01*
G03X1072790I-13070J-21780D01*
G37*
G36*
G01X1098930Y906630D02*
X1149360Y966500D01*
X1085860Y1036350D01*
X1022360Y966500D01*
X1072790Y906630D01*
G03X1098930I13070J21780D01*
G37*
G36*
G01X1103470Y1113600D02*
X1119520Y1164280D01*
X1072830Y1216280D01*
X1028080Y1164280D01*
X1073450Y1109750D01*
G03X1103470Y1113600I12415J22160D01*
G37*
G36*
G01X959200Y1373840D02*
X929500Y1400000D01*
X848150Y1370000D01*
X929500Y1340000D01*
X959200Y1366160D01*
G03Y1373840I-25110J3840D01*
G37*
G36*
G01X988540Y1352040D02*
X1052040Y1288540D01*
X1076350Y1344600D01*
Y1395400D01*
X1052040Y1451460D01*
X988540Y1387960D01*
G03Y1352040I17960J-17960D01*
G37*
G36*
G01X1057340Y1301850D02*
X1028080Y1255720D01*
X1074150Y1203660D01*
X1119520Y1255720D01*
X1081120Y1302670D01*
G03X1057340Y1301850I-11117J-22839D01*
G37*
G36*
G01X1080310Y1404560D02*
X1115720Y1448080D01*
X1070000Y1500150D01*
X1024280Y1448080D01*
X1059690Y1404560D01*
G03X1080310I10310J23210D01*
G37*
%LPC*%
G75*
G54D22*
X1500000Y1500000D03*
%LPD*%
G75*
G54D10*
X108400Y700000D03*
X311600D03*
G54D20*
G01X165500Y1570000D02*
X300000D01*
G01X165500Y1470000D02*
X300000D01*
G01X165500Y1370000D02*
X310000D01*
G01X165500D02*
X40000D01*
G01X165500Y1470000D02*
X40000D01*
G01X165500Y1570000D02*
X40000D01*
G01X854500Y1370000D02*
X520000D01*
X420000Y1270000D01*
X165500D01*
G01X740000Y165860D02*
X929200D01*
X980000Y216660D01*
Y320000D01*
G01X590000Y603800D02*
Y315860D01*
X740000Y165860D01*
G01Y374140D02*
Y593800D01*
X750000Y603800D01*
G01X590000Y756200D02*
X367800D01*
X311600Y700000D01*
G01X750000Y756200D02*
X986200D01*
X1085860Y855860D01*
Y1030000D01*
G01X854500Y1470000D02*
X720000D01*
G01X854500Y1570000D02*
X738580D01*
G01X1085860Y1030000D02*
Y1197940D01*
X1073800Y1210000D01*
G01X1046200Y1646200D02*
X1070000D01*
G01X854500Y1570000D02*
X970000D01*
X1046200Y1646200D01*
G01X1070000Y1493800D02*
Y1370000D01*
G01D02*
Y1213800D01*
X1073800Y1210000D01*
G01X854500Y1370000D02*
X1070000D01*
G54D11*
X165500Y1070000D03*
Y1170000D03*
Y1270000D03*
Y1370000D03*
Y1470000D03*
Y1570000D03*
X854500Y1170000D03*
Y1070000D03*
Y1570000D03*
Y1470000D03*
Y1370000D03*
Y1270000D03*
G54D21*
G01X1680000Y320000D02*
Y650000D01*
G54D12*
X80000Y930000D03*
X220000D03*
Y1710000D03*
X80000D03*
X670000Y930000D03*
X380000D03*
X520000D03*
X290000Y1070000D03*
Y1170000D03*
X730000Y1070000D03*
Y1170000D03*
X380000Y1430000D03*
Y1570000D03*
X670000D03*
X530000D03*
X670000Y1710000D03*
X520000D03*
X380000D03*
X1200000Y1530000D03*
Y1340000D03*
X810000Y1710000D03*
X1640000Y1170000D03*
X1500000D03*
X1740000Y890000D03*
X1600000D03*
G54D13*
X740000Y165860D03*
Y374140D03*
G54D14*
X750000Y603800D03*
X590000D03*
X750000Y756200D03*
X590000D03*
X1070000Y1646200D03*
Y1493800D03*
G54D15*
X1260000Y320000D03*
X1120000D03*
X980000D03*
X1680000D03*
X1540000D03*
X1400000D03*
G54D16*
X1085860Y1030000D03*
X1294140D03*
G54D17*
X1226200Y1210000D03*
X1073800D03*
G54D18*
G01X165500Y1070000D02*
X290000D01*
G01X165500Y1170000D02*
X290000D01*
G01X854500Y1070000D02*
X730000D01*
G01X854500Y1170000D02*
X730000D01*
G54D19*
G01X100000Y0D02*
X1700000D01*
G03X1800000Y100000I0J100000D01*
G01Y1700000D01*
G03X1700000Y1800000I-100000J0D01*
G01X100000D01*
G03X0Y1700000I0J-100000D01*
G01Y100000D01*
G03X100000Y0I100000J0D01*
G01X460000Y300000D02*
G03I-160000J0D01*
G01X1660000Y1500000D02*
G03I-160000J0D01*
M02*
