M48
METRIC,TZ
T01C.3048
T02C.889
T03C1.524
T04C3.4036
;LEADER: 12 
;HEADER: 
;CODE  : ASCII 
;FILE  : TPA61088_TEST_V10A-1-2.drl for board H:/GitHub/Power-Modula/HARDWARE/TPA61088_TEST_V10A/PCB/#Taaaabi06536.tmp ... layers TOP and BOTTOM
;T01 Holesize 1. = 0.304800 Tolerance = +0.000000/-0.000000 PLATED MM Quantity = 194
;T02 Holesize 2. = 0.889000 Tolerance = +0.000000/-0.000000 PLATED MM Quantity = 7
;T03 Holesize 3. = 1.524000 Tolerance = +0.000000/-0.000000 PLATED MM Quantity = 4
;T04 Holesize 4. = 3.403600 Tolerance = +0.000000/-0.000000 PLATED MM Quantity = 4
%
G90
T01
X913620Y120660
X913620Y310660
X1113620Y120660
X1113620Y310660
X1313620Y120660
X1313620Y310660
X1513620Y120660
X1513620Y310660
X1713620Y120660
X1713620Y310660
X1813620Y490660
X1913620Y120660
X1913620Y310660
X2013620Y490660
X2113620Y120660
X2113620Y310660
X2213620Y490660
X2985400Y184790
X2985400Y384790
X3185400Y184790
X3185400Y384790
X3385400Y184790
X3385400Y384790
X3585400Y184790
X3585400Y384790
X4437830Y142850
X4437830Y342850
X4637830Y142850
X4637830Y342850
X4837830Y142850
X4837830Y342850
X4837830Y942850
X4837830Y742850
X4837830Y542850
X4637830Y942850
X4637830Y742850
X4637830Y542850
X4437830Y942850
X4437830Y742850
X4437830Y542850
X4237830Y942850
X4237830Y742850
X4237830Y542850
X4037830Y942850
X4037830Y742850
X4037830Y542850
X3837830Y942850
X3837830Y742850
X3837830Y542850
X3585400Y904790
X3585400Y784790
X3585400Y584790
X3484790Y1014600
X3484790Y904600
X3385400Y904790
X3385400Y784790
X3385400Y584790
X3185400Y784790
X3185400Y584790
X2985400Y784790
X2985400Y584790
X2213620Y680660
X2013620Y680660
X1813620Y680660
X1719580Y1002060
X1719580Y812060
X1519580Y1002060
X1519580Y812060
X1319580Y1002060
X1319580Y812060
X1119580Y1002060
X1119580Y812060
X919580Y1002060
X919580Y812060
X709580Y812060
X509580Y812060
X309580Y812060
X109580Y812060
X89580Y1382060
X289580Y1382060
X489580Y1382060
X689580Y1382060
X3310000Y1440000
X3310000Y1500000
X3380000Y1440000
X3380000Y1500000
X3385400Y1014790
X3385400Y1114790
X3385400Y1214790
X3450000Y1440000
X3450000Y1500000
X3480000Y1120000
X3484790Y1214600
X3585400Y1014790
X3585400Y1114790
X3585400Y1214790
X3837830Y1142850
X3840000Y1310000
X4037830Y1142850
X3310000Y1560000
X3310000Y1620000
X3310000Y1680000
X3365400Y1914790
X3365400Y2014790
X3380000Y1560000
X3380000Y1620000
X3380000Y1680000
X3450000Y1560000
X3450000Y1620000
X3450000Y1680000
X3464790Y1914600
X3470000Y2010000
X3565400Y1914790
X3565400Y2014790
X4945350Y1736700
X5145350Y1736700
X5345350Y1736700
X5545350Y1736700
X5745350Y1736700
X5945350Y1736700
X5535350Y2056700
X5528740Y2432960
X5335350Y2056700
X5328740Y2432960
X5135350Y2056700
X5128740Y2432960
X4935350Y2056700
X4928740Y2432960
X4735350Y2056700
X4728740Y2432960
X4535350Y2056700
X4528740Y2432960
X4335350Y2056700
X4328740Y2432960
X4135350Y2056700
X4128740Y2432960
X3928740Y2432960
X3728740Y2432960
X3565400Y2224790
X3565400Y2114790
X3528740Y2432960
X3464790Y2224600
X3464790Y2114600
X3365400Y2224790
X3365400Y2114790
X3328740Y2432960
X2165460Y2395330
X1965460Y2395330
X1765460Y2395330
X1565460Y2395330
X1365460Y2395330
X1165460Y2395330
X965460Y2395330
X765460Y2395330
X765460Y2595330
X765460Y2795330
X965460Y2595330
X965460Y2795330
X1165460Y2595330
X1165460Y2795330
X1365460Y2595330
X1365460Y2795330
X1565460Y2595330
X1565460Y2795330
X1765460Y2595330
X1765460Y2795330
X1965460Y2595330
X1965460Y2795330
X2165460Y2595330
X2165460Y2795330
X3328740Y2632960
X3328740Y2832960
X3528740Y2632960
X3528740Y2832960
X3728740Y2632960
X3728740Y2832960
X3928740Y2632960
X3928740Y2832960
X4128740Y2632960
X4128740Y2832960
X4328740Y2632960
X4328740Y2832960
X4528740Y2632960
X4528740Y2832960
X4728740Y2632960
X4728740Y2832960
X4928740Y2632960
X4928740Y2832960
X5128740Y2632960
X5128740Y2832960
X5328740Y2632960
X5328740Y2832960
X5528740Y2632960
X5528740Y2832960
T02
X2443000Y320000
X2697000Y320000
X4003000Y320000
X4257000Y320000
X2920000Y2650000
X2666000Y2650000
X2412000Y2650000
T03
X240000Y1118000
X240000Y1880000
X6160000Y1892000
X6160000Y1130000
T04
X330000Y330000
X330000Y2670000
X6070000Y2670000
X6070000Y330000
M30
